<?xml version="1.0" encoding="UTF-8"?>
<svg id="Calque_1" data-name="Calque 1" xmlns="http://www.w3.org/2000/svg" viewBox="0 0 576.06 213.12">
  <defs>
    <style>
      .cls-1 {
        fill: #6cb63f;
      }

      .cls-2 {
        fill: #141414;
      }

      .cls-3 {
        fill: #fff;
      }

      .cls-4 {
        fill: #199a39;
      }

      .cls-5 {
        fill: #d4ecf5;
      }

      .cls-6 {
        fill: #1b9a38;
      }

      .cls-7 {
        fill: #5eb130;
      }

      .cls-8 {
        fill: #161616;
      }
    </style>
  </defs>
  <g>
    <path class="cls-1" d="M163.03,185.13h5.63c3.28-.04,6.06.64,8.32,2.03,1.14.77,2.01,1.8,2.62,3.07.63,1.33.94,3.01.94,5.02s-.31,3.6-.94,4.93c-.61,1.29-1.48,2.34-2.62,3.13-1.06.73-2.32,1.27-3.77,1.59-1.38.31-2.89.46-4.54.46h-5.63v-20.24ZM167.16,202.19h2.3c1.81,0,3.38-.61,4.72-1.83,1.36-1.2,2.04-2.9,2.06-5.1-.02-2.22-.71-3.93-2.06-5.13-1.34-1.2-2.91-1.8-4.72-1.8h-2.3v13.86Z"/>
    <path d="M187.53,191.21h3.26l5.66,14.17h-3.2l-1.24-3.25h-5.84l-1.26,3.25h-2.99l5.62-14.17ZM189.12,194.05h-.04l-2.08,5.85h4.21l-2.08-5.85Z"/>
    <path d="M200.78,193.44h-4.13v-2.23h11.15v2.23h-4.13v11.94h-2.89v-11.94Z"/>
    <path d="M211.97,191.21h3.26l5.66,14.17h-3.2l-1.24-3.25h-5.84l-1.26,3.25h-2.99l5.62-14.17ZM213.56,194.05h-.04l-2.08,5.85h4.21l-2.08-5.85Z"/>
    <path class="cls-1" d="M230.96,185.13h4.13v20.24h-4.13v-20.24Z"/>
    <path d="M238.44,191.21h3.55l5.49,10.6h.04v-10.6h2.77v14.17h-3.53l-5.51-10.6h-.04v10.6h-2.77v-14.17Z"/>
    <path d="M253.2,191.21h3.55l5.49,10.6h.04v-10.6h2.77v14.17h-3.53l-5.51-10.6h-.04v10.6h-2.77v-14.17Z"/>
    <path d="M267.4,198.25c0-2.21.61-3.96,1.82-5.28,1.2-1.31,2.94-1.98,5.24-2.01,2.27.01,4.02.69,5.24,2.03,1.21,1.31,1.82,3.07,1.82,5.26-.03,2.18-.63,3.94-1.8,5.28-1.23,1.38-2.98,2.08-5.26,2.09-2.33-.03-4.07-.72-5.24-2.07-1.21-1.31-1.82-3.08-1.82-5.3ZM270.41,198.25c-.03,1.33.28,2.5.93,3.51.65,1.07,1.69,1.61,3.12,1.62.76,0,1.39-.15,1.9-.45.52-.31.94-.7,1.24-1.18.61-1.03.91-2.2.91-3.51s-.31-2.47-.93-3.47c-.63-1.03-1.67-1.56-3.12-1.58-1.4.01-2.43.54-3.08,1.58-.65,1-.97,2.16-.97,3.47Z"/>
    <path d="M282.55,191.21h3.1l3.7,11.12h.04l3.65-11.12h2.87l-4.85,14.17h-3.55l-4.95-14.17Z"/>
    <path d="M300.24,191.21h3.26l5.66,14.17h-3.2l-1.24-3.25h-5.84l-1.26,3.25h-2.99l5.62-14.17ZM301.83,194.05h-.04l-2.08,5.85h4.21l-2.08-5.85Z"/>
    <path d="M313.49,193.44h-4.13v-2.23h11.15v2.23h-4.13v11.94h-2.89v-11.94Z"/>
    <path d="M321.96,191.21h2.89v14.17h-2.89v-14.17Z"/>
    <path d="M327.1,198.25c0-2.21.61-3.96,1.82-5.28,1.2-1.31,2.94-1.98,5.24-2.01,2.27.01,4.02.69,5.24,2.03,1.21,1.31,1.82,3.07,1.82,5.26-.03,2.18-.63,3.94-1.8,5.28-1.23,1.38-2.98,2.08-5.26,2.09-2.33-.03-4.07-.72-5.24-2.07-1.21-1.31-1.82-3.08-1.82-5.3ZM330.11,198.25c-.03,1.33.28,2.5.93,3.51.65,1.07,1.69,1.61,3.12,1.62.76,0,1.39-.15,1.9-.45.52-.31.94-.7,1.24-1.18.61-1.03.91-2.2.91-3.51s-.31-2.47-.93-3.47c-.63-1.03-1.67-1.56-3.12-1.58-1.4.01-2.43.54-3.08,1.58-.65,1-.97,2.16-.97,3.47Z"/>
    <path d="M343.57,191.21h3.55l5.49,10.6h.04v-10.6h2.77v14.17h-3.53l-5.51-10.6h-.04v10.6h-2.77v-14.17Z"/>
    <path d="M369.36,189.02c0-.88.23-1.68.7-2.4.47-.72,1.15-1.3,2.05-1.72s1.96-.64,3.18-.64,2.26.22,3.14.67c.88.44,1.54,1.02,1.98,1.74.44.72.66,1.46.66,2.24,0,1.06-.36,1.98-1.07,2.76-.71.78-1.76,1.58-3.14,2.39.48.56.93,1.08,1.34,1.57.41.49.81.95,1.2,1.37s.73.79,1.05,1.09c.14-.26.37-.76.67-1.49.3-.73.58-1.25.85-1.57.26-.32.64-.48,1.12-.48.45,0,.85.16,1.2.47s.52.7.52,1.15c0,.42-.15,1-.45,1.76s-.73,1.6-1.3,2.53c.36.3.92.76,1.69,1.37.77.61,1.25,1.03,1.43,1.25s.27.52.27.88c0,.49-.18.9-.54,1.24s-.76.5-1.2.5-.89-.14-1.31-.42-1.32-.98-2.69-2.08c-.62.58-1.27,1.05-1.94,1.42-.67.37-1.38.64-2.15.82-.76.18-1.62.27-2.56.27-1.2,0-2.28-.17-3.23-.52-.96-.34-1.75-.81-2.38-1.39-.63-.58-1.1-1.23-1.41-1.95-.31-.71-.46-1.44-.46-2.17s.12-1.36.34-1.95c.23-.59.55-1.12.97-1.6.42-.48.93-.93,1.54-1.36.61-.43,1.32-.85,2.12-1.25-.72-.89-1.26-1.68-1.63-2.37-.37-.69-.55-1.41-.55-2.14ZM373.43,195.8c-.98.56-1.71,1.11-2.2,1.67-.48.56-.73,1.22-.73,1.98,0,.43.09.85.27,1.25s.44.76.78,1.1c.34.34.74.6,1.19.78.45.18.93.27,1.43.27s.96-.08,1.42-.23c.46-.15.9-.37,1.31-.64.41-.28.84-.62,1.28-1.04-.85-.77-1.62-1.54-2.3-2.3-.68-.76-1.5-1.71-2.45-2.84ZM374.9,191.92c.98-.61,1.69-1.13,2.12-1.55.44-.42.66-.93.66-1.52s-.22-1.08-.66-1.47c-.44-.4-.99-.59-1.65-.59s-1.22.2-1.66.61c-.45.41-.67.88-.67,1.43,0,.28.08.59.25.91.17.33.38.65.63.97.25.32.58.73.98,1.22Z"/>
    <path class="cls-1" d="M408.43,188.85c-1.34-.56-2.73-.85-4.19-.87-.39,0-.75.04-1.06.12-.39.1-.75.24-1.06.44-.33.21-.6.5-.8.87-.22.39-.32.85-.32,1.39,0,.41.14.76.41,1.07.25.27.6.53,1.03.78.22.12.45.23.69.33.25.11.51.21.78.3.25.1.52.2.8.32l.83.35c.53.19,1.08.45,1.65.75.53.31,1.01.69,1.45,1.13.22.21.41.45.58.7s.32.53.46.84c.24.62.35,1.36.35,2.23-.02,2.17-.78,3.73-2.27,4.7-1.46.95-3.27,1.42-5.46,1.42-.53,0-1.02-.02-1.46-.06s-.85-.1-1.22-.17c-.37-.08-.78-.16-1.21-.25-.43-.09-.89-.19-1.39-.3l.38-3.65c1.43.79,2.99,1.21,4.66,1.25.85,0,1.66-.21,2.45-.64.79-.43,1.19-1.08,1.21-1.97,0-.48-.12-.9-.35-1.25-.26-.33-.6-.62-1.03-.87-.45-.23-.94-.46-1.46-.68-.52-.22-1.07-.44-1.64-.65-.28-.12-.55-.24-.83-.38-.28-.14-.54-.28-.8-.44-.55-.31-1.04-.66-1.47-1.04-.22-.21-.41-.44-.58-.7-.17-.25-.32-.53-.46-.84-.28-.64-.41-1.34-.41-2.12.04-2.24.8-3.85,2.27-4.81,1.43-.91,3.08-1.36,4.92-1.36s3.45.24,4.92.72l-.38,3.34Z"/>
    <path d="M423.33,205.17c-1.05.27-2.14.42-3.28.45-2.37,0-4.26-.59-5.68-1.77-1.47-1.16-2.22-2.94-2.23-5.32.1-4.99,2.73-7.52,7.91-7.57,1.02,0,2.11.2,3.26.59l-.21,2.4c-.52-.3-1.05-.51-1.57-.63-.52-.08-1.04-.12-1.55-.12-1.49.01-2.66.5-3.51,1.46-.88.95-1.32,2.17-1.32,3.67s.43,2.69,1.3,3.59c.84.96,2.04,1.45,3.59,1.46.58,0,1.17-.06,1.78-.18.29-.05.55-.12.77-.18.23-.07.43-.14.61-.22l.12,2.38Z"/>
    <path d="M425.06,191.21h2.89v14.17h-2.89v-14.17Z"/>
    <path d="M430.91,191.21h8.5v2.23h-5.62v3.49h5.14v2.23h-5.14v3.98h5.66v2.23h-8.55v-14.17Z"/>
    <path d="M442.09,191.21h3.55l5.49,10.6h.04v-10.6h2.77v14.17h-3.53l-5.51-10.6h-.04v10.6h-2.77v-14.17Z"/>
    <path d="M467.48,205.17c-1.05.27-2.14.42-3.28.45-2.37,0-4.26-.59-5.68-1.77-1.47-1.16-2.22-2.94-2.23-5.32.1-4.99,2.73-7.52,7.91-7.57,1.02,0,2.11.2,3.26.59l-.21,2.4c-.52-.3-1.05-.51-1.57-.63-.52-.08-1.04-.12-1.55-.12-1.49.01-2.66.5-3.51,1.46-.88.95-1.32,2.17-1.32,3.67s.43,2.69,1.3,3.59c.84.96,2.04,1.45,3.59,1.46.58,0,1.17-.06,1.78-.18.29-.05.55-.12.77-.18.23-.07.43-.14.61-.22l.12,2.38Z"/>
    <path d="M469.47,191.21h8.5v2.23h-5.62v3.49h5.14v2.23h-5.14v3.98h5.66v2.23h-8.55v-14.17Z"/>
    <path class="cls-1" d="M504.49,205.09c-1.49.39-3.06.6-4.69.64-3.38,0-6.08-.84-8.11-2.52-2.1-1.66-3.17-4.2-3.18-7.6.14-7.13,3.9-10.74,11.29-10.82,1.45,0,3.01.28,4.66.84l-.29,3.42c-.75-.42-1.49-.72-2.24-.9-.75-.12-1.48-.17-2.21-.17-2.12.02-3.79.71-5.01,2.09-1.26,1.35-1.89,3.1-1.89,5.25s.62,3.84,1.86,5.13c1.2,1.37,2.91,2.07,5.13,2.09.83,0,1.67-.09,2.54-.26.41-.08.78-.16,1.11-.26s.61-.2.87-.32l.18,3.39Z"/>
    <path d="M506.6,191.21h2.89v11.94h5.59v2.23h-8.48v-14.17Z"/>
    <path d="M516.67,191.21h2.89v8.18c-.01,1.22.21,2.18.68,2.88.47.74,1.24,1.12,2.31,1.12s1.88-.37,2.33-1.12c.44-.72.66-1.68.66-2.88v-8.18h2.89v9.05c-.07,3.64-2.03,5.43-5.88,5.36-3.87.07-5.83-1.72-5.88-5.36v-9.05Z"/>
    <path d="M539.28,193.81c-.94-.39-1.91-.6-2.93-.61-.28,0-.52.03-.74.08-.28.07-.52.17-.74.3-.23.15-.42.35-.56.61-.15.27-.23.59-.23.97,0,.28.1.54.29.75.18.19.42.37.72.55.15.08.31.16.49.23.17.07.35.15.55.21.18.07.36.14.56.22l.58.24c.37.14.76.31,1.16.53.37.22.71.48,1.01.79.15.15.29.31.4.49.12.18.22.37.32.59.17.43.25.95.25,1.56-.01,1.52-.54,2.61-1.59,3.29-1.02.66-2.29,1-3.82,1-.37,0-.71-.01-1.02-.04s-.6-.07-.86-.12c-.26-.05-.54-.11-.85-.17-.3-.06-.63-.13-.97-.21l.27-2.56c1,.56,2.09.85,3.26.87.59,0,1.16-.15,1.71-.45.55-.3.83-.76.85-1.38,0-.34-.08-.63-.25-.87-.18-.23-.42-.43-.72-.61-.32-.16-.66-.32-1.02-.48-.36-.16-.75-.31-1.15-.46-.19-.08-.38-.17-.58-.26-.19-.09-.38-.2-.56-.3-.39-.22-.73-.46-1.03-.73-.15-.15-.29-.31-.4-.49-.12-.18-.22-.37-.32-.59-.19-.45-.29-.94-.29-1.48.03-1.57.56-2.69,1.59-3.37,1-.64,2.15-.95,3.45-.95s2.42.17,3.45.51l-.27,2.33Z"/>
    <path d="M545.49,193.44h-4.13v-2.23h11.15v2.23h-4.13v11.94h-2.89v-11.94Z"/>
    <path d="M554.2,191.21h8.5v2.23h-5.62v3.49h5.14v2.23h-5.14v3.98h5.66v2.23h-8.55v-14.17Z"/>
    <path d="M565.29,191.21h4.31c.4,0,.8,0,1.2.02.77.04,1.5.18,2.19.41.69.23,1.22.61,1.61,1.14.37.51.57,1.27.6,2.27,0,.83-.26,1.55-.79,2.17-.51.6-1.24.97-2.19,1.12v.04c.38.04.7.21.95.51.25.3.44.62.58.95l2.31,5.54h-3.22l-1.73-4.42c-.19-.54-.42-.92-.68-1.14-.28-.22-.72-.33-1.32-.33h-.93v5.89h-2.89v-14.17ZM568.18,197.26h.95c.19,0,.38,0,.56-.02s.36-.03.56-.06c.37-.04.69-.13.97-.26.32-.15.56-.34.72-.59.17-.26.25-.6.25-1.04s-.08-.76-.25-1.04c-.18-.24-.42-.43-.72-.55-.29-.12-.61-.2-.97-.24-.19-.01-.38-.02-.56-.02h-1.51v3.82Z"/>
  </g>
  <path class="cls-5" d="M116.15,3.03C84.48-6.25,46.01,6.55,24.01,30.8c-63.91,70.43,10.35,182.24,98.97,148.08C209.84,145.39,199.51,27.47,116.15,3.03Z"/>
  <g>
    <path class="cls-3" d="M172.73,52.69c2.72-.87,5.62-2.36,8.53-2.35,9.68.02,17.89,6.36,20.58,16.02,3.53,12.7-1.81,25.12-13.29,30.49,1.56,1.97,2.61,3.49,3.11,6.07,4.4,22.78-27.85,27.77-36.61,10.37-5.45,4.71-11.31,9.58-18.18,11.78-1.68.54-3.83.73-5.37,1.38-1.05.44-1.06,1.21-1.97,1.81-2.93,1.95-8.26-.29-11.95.96-5.02,1.7-9.03,10.12-9.37,15.3-.23,3.47,1.23,7.64,1.22,11.37-.02,5.83-2.65,11.63-.77,17.35,1.37,4.17,3.23,5.06,2.7,10.32-.19,1.84-1.98,5.46-1.33,6.9.12.27.58.56.86.66,2.43.86,6.63-.07,9.27-.15,9.56-.3,21.97,1.99,27.69,10.91.74,1.16,2.76,5.45,1.63,6.58-.82.82-.74-2-.8-2.27-2.26-9.58-15.03-13.69-23.3-14.19-4.5-.27-9.5.78-13.86.27-4.86-.57-1.44-5.8-1.14-8.71.48-4.78-1.11-5.69-2.45-9.54-2.23-6.43.32-11.01.51-17.35.15-4.93-1.74-9.33-.89-14.14,1.02-5.78,5.43-14.1,11.64-14.75,2.78-.29,7.98,1.12,10.1-.56.41-.33.54-.83.89-1.14,1.27-1.15,5.34-1.59,7.25-2.25,6.41-2.22,11.9-7.06,17.14-11.34-.25-2.24-.66-3.55.17-5.76.71-1.9,3.71-5.56,5.38-2.91,2.08,3.28-2.49,6.88-4.17,9.02,5.15,11.32,23.63,12.98,31.5,4.32,3.95-4.35,5.1-14.16,1.1-18.77-1.71-1.97-2.01-.73-4.19-.26-3.8.82-8.3,1.19-12.07.19-5.93-1.56-5.3-5.48.23-6.9,4.3-1.1,8.69.53,12.41,2.73.69.41,2.17,1.8,2.74,1.77,12.36-4.86,17.45-19.46,12.31-32.03-2.75-6.71-7.26-10.13-13.98-11.77-4.95-1.21-8.43-.64-12.99,1.62,1.02,6.71.3,14.1-2.54,20.26-3.37,7.31-12.04,13.73-19.88,13.9-.75.02-2.17-.69-2.71-.01-.18.22-1.39,4.57-1.73,5.44-.78,2-1.79,3.87-2.6,5.86.58,1.5,1.73,2.65,2.35,4.25,2.86,7.38-1.84,14.23-7.87,17.65-4.91,2.78-10.53,3.51-16.05,2.73-1.22-.17-3.5-.55-2.39-2.36,1.03-1.69,7.31-3.36,9.38-4.42,6.04-3.11,9.92-11.64,13.25-17.48l-.12-.4c-4.22-4.17-8.47-8.28-11.77-13.33-1.79,3.1-3.77,5.94-6.55,8.15,3.87,2.75,9.98,2.08,10.81,8.1.8,5.79-1.66,10.55-6.45,13.31-3.36,1.94-9,2.56-11.29,5.27-2.24,2.64-3.82,5.49-6.55,7.9-.85.75-2.93,2.58-3.71.76-.46-1.06,1.11-6.29,1.32-7.93.66-5.03-.19-11.01-1.28-15.94-.27-1.22-1.18-5.13-1.69-6-.39-.65-2.31-.64-3.14-.86-6.26-1.68-12.75-6.74-15.75-12.77-1.41-2.85-3.41-9.7,1.72-9.6,5.16.1,12.72,12.14,15.17,16.5.96,1.7,1.73,3.58,2.69,5.22,5.44.42,10.82-1.13,15.66-3.59.13-.6-.08-.41-.32-.57-1.4-.94-3.15-1.7-4.61-2.68-9.75-6.59-14.99-14.33-12.27-27.04,2.01-9.38,11.45-16.96,20.35-18.19.75-1.21.57-2.75.92-4.09.26-1,1.37-3.3,1.38-4,.02-1.95-3.18-7-4.46-8.56-8.7-10.6-27.67-9.76-34.83,2.13-.56.93-1.1,2.93-1.96,3.39-1.07.57-4.13.6-5.56.91-1.18.25-9.34,2.5-9.34,3.42,15.51,7.95,13.11,32.5-4.21,36.13-.33.47,2.93,2.98,2.23,4.14-2.96-.45-5.92-.84-8.9-.26,1.48,3.68,2.8,7.45,4.84,10.85,2.86,4.76,7.25,7.87,9.75,12.84.4.25,2.69.16,3.35.14,8.21-.28,16.93-4.25,23.37,3.48,2.9,3.48,4.77,10.18,4.44,14.77-.12,1.74-.94,5.24-3.07,3.22-1.14-1.08-2.87-4.39-4-5.91-4.13-5.53-8.91-8.86-15.49-10.72-2.16-.61-7.28-.62-8.61-2.12-.95-1.08-.17-2.13-2.47-1.69.86,3.12.89,4.58,4.33,4.91,1.55.15,8.03-.32,8.79.95,1.98,3.3-4.64,4.09-5.21,6.56,2.85-.76,6.24-2.67,9.21-2.26,3.52.48,7.68,4.18,9.22,7.43,1.09,2.3.75,3.91,1.14,6.31,1.17,7.11,2.66,12.83,1.94,20.24-.56,5.66-2.93,11.37-3.43,16.61-.23,2.43.14,5.05-.02,7.49-.65,10.11-7.73,22.34-16.08,27.45-20.7,12.67-51.21,13.44-74.57,12.03-.58-.04-3.11-.37-3.34-.65-4.09-4.92,2.39-.4,2.85-.39,19.68.71,38.1,1.21,57.25-4.53,14.22-4.26,26.01-10.33,31.17-25.89,2.06-6.24,1.2-9.45,1.76-15.51.35-3.85,2.14-8.55,2.82-12.59,1.63-9.69.21-14.97-1.33-24.25-.41-2.45.02-3.83-1.23-6.23-1.84-3.55-6-6.9-10.03-6.53-1.75.16-7,2.71-8.08,1.92-.3-.22-.26-.69-.23-1.03.23-2.26,6.55-3.81,5.42-5.57-3.07-1.39-10.16.85-12.06-2.52-.44-.78-1.09-3.99-1.68-4.2-5.18-.44-11.07-1.61-15.59-4.39-3.78-2.33-2.37-3.04-7.63-2.9-5.54.14-10.74,1.61-16.11-.98-5.95-2.86-9.99-12.19-4.41-17.41.49-.46,1.63-.87,1.62-1.41-7.78-10.65-5.37-25.03,6.92-30.3,4.59-1.97,8.61-1.59,13.43-.96,3.23-5.81,9.14-8.1,15.38-7.74,1.4.08,4.04.99,4.94.94.57-.03,2.33-1.26,3.09-1.57,2.93-1.17,6.25-2.08,9.34-2.65,1.01-.19,2.37.02,3.33-.39.78-.33,1.3-2.2,1.81-3.02,5.52-8.94,16.73-11.84,26.27-9.16,7.32,2.06,11.91,7.76,14.77,14.83,8.76-12.18,25.01-10.57,35.72-2.17,5.54,4.35,8.1,11.32,9.42,18.24ZM157.56,58.22c1.97,2.1,3.36,5.37,5.16,7.67,1.18-2.85,2.17-5.72,4.09-8.14,1.46-1.85,3.35-3.15,5.09-4.66-1.45-7.25-3.86-13.74-9.72-18.23-10.31-7.9-26.06-9.08-34.09,2.82-.24.58.78,3.97.87,5.04.32,3.89-.08,7.89-1.68,11.44-.46,1.01-1.79,2.51-1.79,3.58,0,1.2,1.58,2.92,2.37,3.75l3.94-4.66c7.02-7,19.22-5.55,25.76,1.39ZM67.87,39.23c-5.4-1.16-11.92-.71-16.08,3.48-1.63,1.64-1.53,3.9-4.06,3.77-3.94-.21-5.37-1.26-9.72-.08-11.29,3.08-16.76,15.75-10.89,26.57.55,1.01,2.33,2.87,2.19,3.92-.13.99-1.74,1.6-2.34,2.24-3.71,3.98-1.6,10.69,2.1,13.81,6.01,5.07,14.44,2.15,21.49,2.74-.03-.95-.61-1.67-.87-2.59-1.45-5.21-.38-9.83,4.16-12.74,1.24-.79,2.65-1.08,3.82-1.71.23-.12.4.07.31-.44-1.46-2.6-2.28-1.7-4.57-1.95-4.8-.52-13.2-3.28-14.36-9.05-1.03-5.11,5.42-1.85,7.56-.67,4.05,2.24,7.33,5.56,10.56,8.89l7.25-.73c-6.39-8.69-7.25-19.06-2.02-28.66,1.47-2.7,3.37-4.69,5.48-6.82ZM127.47,39.48c-.63-.1-.39.06-.52.36-.69,1.61-.97,6.24-2.06,6.9-.59.36-2.92.54-3.9.83-6.56,1.92-14.12,9.07-15.81,16.08-2.67,11.13.63,17.64,8.71,24.35,1.33,1.1,7.17,5.26,8.53,5.34,1.64.09,6.59-6.58,7.19-8.42-1.43-2.53-3.18-4.95-4.12-7.76-1.65-4.9-.38-10.09,1.91-14.51-.91-1.45-2.9-3.04-2.9-4.92,0-1.41,1.32-2.79,1.87-4,1.22-2.69,1.57-5.23,1.84-8.17l-.74-6.09ZM69.27,39.8c-10.72,7.71-12.43,24.46-3.73,34.61,13.66-2.49,19.03-18.93,10.12-30-1.69-2.1-3.81-3.88-6.39-4.6ZM172.23,54.5c-3.02,1.35-5.64,4.71-7.05,7.76-.48,1.03-1.31,4.6-2.23,4.68-1.17.11-3.36-4.2-4.11-5.27-5.9-8.39-17.22-11.64-25.55-4.83-.89.73-4.74,4.76-4.54,5.76.07.37,1.2,1.78,1.49,2.35,2.55,4.93,3.19,9.45,2.11,14.99-.24,1.24-1.55,4.33-1.31,5.14,1.85,2.51,3.6,5.22,5.7,7.51,1.29,1.41,3.19,2.9,4.6,4.25.58.56.72,1.64,1.71,1.42l3.91-10.74c-5.52-2.58-8.7-9.31-8.1-15.53.44-4.59,3.54-7.23,7.05-3.24,3.89,4.42,3.38,12.41,2.35,17.87,5.42.92,11.19-1.79,15.34-5.3,7.68-6.52,9.72-16.83,8.65-26.81ZM128.09,63.57c-3.83,6.73-2.83,14.12,1.98,19.93,3.01-6.2,2.33-14.55-1.98-19.93ZM40.33,65.41c-1.8.62,1.56,4.84,2.31,5.54,3.29,3.12,7.85,4.19,12.18,4.35.12,0,.7.26.68-.21-.04-.8-7.19-6.38-8.33-7.07-1.23-.75-5.62-3.03-6.84-2.61ZM147.25,86.09c1.27-5.09,1.46-14.64-3.37-17.82-1.22-.8-2-.76-2.91.49-3.34,4.58.53,16.21,6.28,17.33ZM67.13,78.07l-2.09-2.48c-2.32.56-4.68.79-7.06.67.72,2.85,1.96,1.61,3.82,1.54,1.79-.06,3.56.03,5.33.27ZM104.22,98.01c.4-.43-2.73-5.81-3.21-6.61-2.19-3.67-9.07-14.26-13.47-14.12-4.06.13-1.43,6.59-.33,8.64,3.32,6.18,10.24,11.29,17.02,12.09ZM73.06,102.93c.79-.73-6.18-8-6.8-8.8-3.48-4.48-5.38-9.42-7.54-14.66-6.33,1.31-10.23,6.34-8.15,13.21.17.56.96,2.47,1.33,2.75.69.52,3.2.15,4.23.23,5.43.42,10.45,1.1,14.2,5.58.94,1.12.7,2.07,2.72,1.68ZM186.33,96.2c-4.35-2.9-9.74-5.43-14.9-3.31-5.28,2.17-.57,4.25,2.48,4.79,2.96.52,6.05.26,9-.27.3-.05,3.75-.7,3.42-1.21ZM107.44,129.09c.54.58,3.48-2.47,3.96-2.97,2.2-2.33,4.66-6.95,7.28-8.17,3.78-1.77,7.61-1.9,11.13-4.92,3.95-3.38,5.88-10.51,1.74-14.5l-8.9-3.79c-5.11,2.9-10.82,4.64-16.69,4.31,1.8,7.05,3.89,15.02,2.94,22.37-.14,1.07-1.71,7.39-1.45,7.67ZM70.09,102.67c-3.57-5.69-10.93-5.89-16.82-5.95,4.23,4.16,11.18,5.41,16.82,5.95ZM143.29,100.6l-.6.27c-3.25,5.48-6.77,13.11-12.25,16.44-3.31,2.01-7.25,2.42-10.14,4.92-.02.73,6.54.94,7.29.9,6.74-.31,15.03-4.23,17.44-11.26,1.51-4.39.57-7.51-1.74-11.27ZM74.55,103.97c-.11.44.17.52.37.78,1.13,1.48,6.76,1.55,8.98,2.25,8.95,2.85,14.32,8.31,19.09,16.53l.62.38c1.31-1.99.93-5.24.56-7.57-.71-4.5-2.81-9.29-6.63-11.7-5.53-3.48-10.57-1.5-16.43-.93-2.11.21-4.42.22-6.55.26ZM155.42,111.48c.28.26,2.34-1.99,2.6-2.33,1.02-1.33,2.52-3.7.94-5.15-3,.4-4.39,4.67-3.54,7.48Z"/>
    <g>
      <path class="cls-6" d="M22.96,212.99c-5.06,0-10.34-.17-15.85-.5-.03,0-3.33-.24-3.91-.94-1.33-1.6-1.9-2.54-1.3-3.25.68-.81,1.85-.18,4.06,1.09.37.21.67.39.85.48,18.39.66,37.41,1.33,56.88-4.5,14.82-4.44,25.7-10.45,30.64-25.38,1.36-4.12,1.42-6.9,1.48-10.12.03-1.59.06-3.24.24-5.21.2-2.24.88-4.76,1.54-7.2.49-1.83,1-3.73,1.29-5.45,1.39-8.29.55-13.15-.74-20.52-.19-1.1-.39-2.25-.6-3.47-.14-.83-.18-1.55-.23-2.18-.09-1.3-.15-2.33-.92-3.81-1.67-3.22-5.48-6.46-9.25-6.1-.57.05-1.77.47-2.92.87-2.91,1.01-4.75,1.6-5.7.9-.68-.5-.59-1.38-.55-1.76.15-1.48,1.83-2.5,3.44-3.48.66-.4,1.71-1.04,2.02-1.43-1.07-.32-2.63-.3-4.16-.29-3.02.02-6.46.05-7.85-2.41-.21-.38-.42-1.05-.65-1.83-.18-.58-.48-1.59-.7-2-6.5-.59-11.76-2.1-15.64-4.48-1.17-.72-1.87-1.3-2.39-1.72-1.13-.93-1.39-1.15-4.81-1.06-1.36.04-2.72.15-4.04.27-4.03.35-8.21.71-12.43-1.32-3.76-1.81-6.73-5.91-7.39-10.21-.51-3.33.48-6.35,2.78-8.5.2-.19.5-.38.8-.57.11-.07.27-.17.39-.25-3.96-5.67-5.27-12.38-3.59-18.5,1.55-5.66,5.52-10.12,11.18-12.54,4.53-1.94,8.42-1.71,13.32-1.08,3.17-5.29,8.91-8.1,15.86-7.68.76.04,1.78.29,2.76.53.78.19,1.79.43,2.08.4.21-.04.99-.5,1.46-.77.53-.31,1.02-.6,1.39-.74,2.83-1.12,6.2-2.08,9.49-2.7.45-.08.95-.1,1.42-.11.64-.02,1.29-.04,1.74-.23.25-.13.68-1.11.89-1.57.19-.43.38-.84.56-1.14,5.31-8.6,16.48-12.51,27.16-9.51,6.46,1.81,11.41,6.53,14.75,14.02,3.51-4.32,8.23-7,13.76-7.79,7.36-1.05,15.68,1.41,22.25,6.56,4.68,3.67,7.81,9.51,9.53,17.82.44-.16.88-.32,1.33-.49,2.12-.79,4.31-1.61,6.57-1.61h.02c10.01.03,18.59,6.7,21.35,16.61,3.53,12.69-1.73,25.29-12.82,30.99,1.23,1.61,2.18,3.2,2.65,5.63,2.21,11.45-4.55,18.11-11.62,20.52-8.8,3-20.71.5-26-8.75-5.58,4.8-11.18,9.2-17.71,11.29-.76.25-1.61.42-2.43.59-1.02.21-2.07.43-2.87.77-.39.16-.55.38-.8.71-.23.31-.52.7-1.04,1.04-1.82,1.21-4.33,1.02-6.76.83-1.89-.15-3.85-.3-5.38.22-4.66,1.58-8.51,9.82-8.83,14.6-.12,1.74.22,3.68.58,5.74.32,1.85.65,3.75.64,5.58,0,2.21-.38,4.41-.74,6.54-.62,3.66-1.2,7.12-.07,10.56.42,1.27.87,2.2,1.31,3.11.97,1.99,1.81,3.71,1.42,7.54-.08.77-.38,1.74-.7,2.76-.41,1.31-.98,3.1-.69,3.73.03.03.25.18.4.23,1.54.55,4.04.28,6.24.04.99-.11,1.94-.21,2.74-.23,6.25-.2,21.48.51,28.38,11.28.04.05,3.37,5.72,1.53,7.58-.5.51-1,.39-1.19.32-.78-.3-.88-1.31-.95-2.7,0-.14-.01-.25-.02-.31-2.14-9.05-14.67-13.06-22.56-13.53-2.02-.12-4.19.04-6.3.18-2.55.18-5.18.37-7.61.08-1.33-.16-2.27-.65-2.8-1.47-.98-1.52-.29-3.71.32-5.65.29-.92.56-1.78.63-2.46.32-3.14-.31-4.46-1.18-6.29-.38-.81-.82-1.73-1.23-2.91-1.53-4.42-.92-7.95-.26-11.69.33-1.88.67-3.82.73-5.94.06-2.05-.25-4.06-.55-6-.41-2.65-.83-5.39-.33-8.25,1.06-5.97,5.58-14.7,12.34-15.4,1.04-.11,2.32,0,3.68.11,2.28.19,4.87.4,6.01-.5.11-.09.2-.24.31-.42.14-.22.29-.47.53-.69.99-.89,3.06-1.35,5.07-1.79.95-.21,1.84-.41,2.46-.62,5.66-1.97,10.61-6.03,15.4-9.97l1.16-.95c-.03-.22-.06-.43-.08-.64-.23-1.7-.41-3.04.35-5.07.51-1.37,2.39-4.13,4.43-4.35.55-.05,1.58.04,2.38,1.29,2,3.16-1.02,6.43-3.02,8.59-.32.35-.62.67-.88.98,2.25,4.49,7.1,7.7,13.07,8.63,6.59,1.04,13.22-.92,16.9-4.96,3.67-4.04,4.86-13.36,1.09-17.71-.83-.96-.92-.92-1.76-.56-.42.18-.94.4-1.65.56-3.3.71-8.14,1.32-12.44.19-3.04-.8-4.79-2.31-4.78-4.13,0-1.89,1.88-3.51,5.02-4.31,3.82-.98,8.2-.04,13.01,2.82.25.15.61.42.99.71.35.27.97.75,1.29.91,5.23-2.12,9.35-6.22,11.63-11.56,2.57-6.02,2.57-13.07,0-19.34-2.52-6.16-6.67-9.65-13.43-11.3-4.42-1.08-7.61-.74-11.93,1.31.96,7.03-.01,14.33-2.69,20.13-3.63,7.88-12.68,14.19-20.59,14.37-.33,0-.7-.07-1.08-.16-.26-.06-.8-.18-1-.14-.15.42-.52,1.64-.8,2.55-.35,1.15-.68,2.25-.84,2.67-.43,1.09-.92,2.16-1.4,3.18-.37.79-.74,1.58-1.08,2.38.25.56.59,1.08.95,1.63.46.71.94,1.45,1.28,2.33,3.07,7.92-1.92,15.06-8.22,18.63-4.77,2.7-10.49,3.68-16.55,2.83-.93-.13-2.66-.37-3.21-1.55-.2-.41-.31-1.1.25-2.02.78-1.27,3.29-2.27,6.74-3.54,1.19-.44,2.32-.85,2.95-1.18,4.91-2.53,8.49-9.09,11.37-14.36.46-.85.91-1.67,1.35-2.45l-.36-.36c-3.7-3.65-7.51-7.41-10.59-11.84-1.28,2.11-2.97,4.53-5.24,6.56.99.54,2.11.93,3.2,1.31,3.01,1.06,6.42,2.26,7.05,6.77.83,5.98-1.67,11.13-6.84,14.11-1.39.8-3.14,1.39-4.83,1.95-2.46.82-5.01,1.67-6.25,3.14-.77.91-1.48,1.87-2.17,2.8-1.29,1.75-2.63,3.57-4.47,5.18-.8.7-2.27,2-3.62,1.7-.42-.09-.99-.38-1.35-1.22-.38-.89.03-2.83.75-5.93.23-.99.45-1.92.51-2.42.54-4.09.1-9.51-1.27-15.66-.54-2.44-1.26-5.2-1.6-5.76-.17-.13-1.11-.25-1.57-.31-.42-.05-.81-.11-1.09-.18-6.7-1.8-13.23-7.1-16.26-13.19-1.03-2.08-2.57-6.66-1-9.14.48-.76,1.46-1.63,3.46-1.61,6.24.13,14.89,15.19,15.85,16.91.46.82.88,1.68,1.29,2.53.39.81.77,1.58,1.18,2.31,4.41.26,9.07-.78,13.89-3.07-.52-.31-1.08-.62-1.66-.93-.81-.44-1.65-.89-2.42-1.41-11.37-7.68-15.14-16.02-12.6-27.87,2.16-10.1,12.09-17.39,20.61-18.75.25-.56.32-1.23.4-1.94.06-.53.12-1.09.26-1.63.12-.47.38-1.12.66-1.81.26-.64.68-1.71.69-2,.01-1.53-2.82-6.27-4.27-8.04-4.05-4.93-10.69-7.56-17.74-7.05-6.76.49-12.66,3.89-15.79,9.09-.17.28-.33.67-.51,1.08-.46,1.06-.94,2.16-1.75,2.6-.81.44-2.32.59-3.78.73-.77.08-1.5.15-1.99.25-1.39.3-6.1,1.67-8.04,2.54,6.91,4.11,10.6,11.98,9.47,20.41-1.1,8.17-6.39,14.34-13.93,16.35.08.09.15.18.23.26.98,1.14,2.19,2.56,1.47,3.76l-.28.46-.53-.08c-2.72-.42-5.2-.73-7.67-.42.15.37.29.75.44,1.12,1.15,2.94,2.34,5.98,3.98,8.69,1.27,2.11,2.9,3.94,4.47,5.71,1.85,2.08,3.76,4.23,5.15,6.88.26.02.97.06,2.66,0,2.05-.07,4.07-.35,6.02-.63,6.36-.89,12.93-1.82,18.1,4.39,2.9,3.48,4.98,10.36,4.62,15.33-.04.63-.35,3.79-2.05,4.45-.52.2-1.36.24-2.36-.71-.77-.73-1.69-2.23-2.59-3.69-.55-.9-1.08-1.75-1.5-2.32-3.38-4.52-7.17-7.5-12.04-9.41.39.7.5,1.39.33,2.04-.3,1.17-1.4,1.96-2.59,2.67,1.86-.66,3.76-1.18,5.6-.93,3.89.53,8.23,4.5,9.84,7.88.8,1.67.89,3.01.99,4.42.05.65.09,1.34.22,2.1.22,1.31.44,2.57.66,3.8.97,5.4,1.88,10.49,1.28,16.65-.29,2.93-1.05,5.87-1.79,8.71-.72,2.77-1.4,5.38-1.64,7.89-.12,1.24-.07,2.59-.03,3.9.04,1.18.08,2.39,0,3.57-.67,10.5-7.9,22.84-16.46,28.07-13.74,8.41-33.6,12.65-59.18,12.65ZM4.34,210.43c.09.03.23.07.4.11-.18-.1-.38-.21-.58-.32.06.07.11.14.18.22ZM106.99,99.88c1.75,6.84,3.62,14.5,2.69,21.64-.05.41-.27,1.41-.55,2.68-.24,1.07-.58,2.63-.78,3.68.62-.48,1.51-1.29,2.47-2.31.74-.78,1.51-1.84,2.34-2.96,1.62-2.21,3.3-4.5,5.18-5.38,1.39-.65,2.79-1.09,4.14-1.51,2.4-.75,4.66-1.45,6.81-3.29,2.21-1.89,3.69-5,3.77-7.9.04-1.49-.27-3.61-1.97-5.31l-8.4-3.57c-5.25,2.91-10.55,4.35-15.7,4.26ZM76.32,104.73c1.1.42,3.01.68,4.4.88,1.32.19,2.56.36,3.41.63,8.21,2.62,13.99,7.52,19.22,16.36.59-1.67.35-4.01.02-6.14-.79-5-3.13-9.17-6.27-11.15-4.08-2.57-7.83-1.99-12.17-1.32-1.22.19-2.47.38-3.76.51-1.57.15-3.23.2-4.85.23ZM121.97,121.98c1.72.25,4.79.39,5.59.35,6.59-.31,14.45-4.09,16.73-10.72,1.34-3.91.62-6.65-1.21-9.82-.47.81-.95,1.67-1.45,2.54-2.85,5.07-6.08,10.81-10.77,13.66-1.48.9-3.05,1.48-4.58,2.05-1.54.57-3.01,1.12-4.31,1.94ZM158.66,104.87c-.83.25-1.4.9-1.74,1.42-.69,1.07-1.03,2.53-.93,3.84.55-.52,1.21-1.23,1.4-1.48,1.32-1.73,1.75-3,1.28-3.79ZM78.63,108.12c.6,0,1.15,0,1.66.01-.13-.02-.25-.03-.38-.05-2.52-.33-5.13-.67-6.22-1.9-.41-.46-.57-.91-.69-1.24-.04-.11-.09-.25-.12-.29,0,0-.01,0-.05,0,.64,2.44.85,3.18,3.4,3.43.39.04,1.09.03,1.94.03.15,0,.31,0,.45,0ZM74.55,103.97l.77.19-.77-.19ZM55.77,94.86c.16,0,.3,0,.42.01,5.76.45,10.84,1.2,14.75,5.87.28.33.47.65.63.93.18.31.28.47.46.53-.98-1.57-4.13-5.04-5.27-6.3-.58-.64-1-1.11-1.14-1.28-3.3-4.24-5.18-8.85-7.18-13.72l-.2-.5c-2.82.73-5.04,2.26-6.29,4.36-1.28,2.15-1.49,4.81-.62,7.69.18.59.84,2.12,1.09,2.39.26.14,1.65.08,2.32.05.37-.02.73-.03,1.03-.03ZM55.53,97.55c3.68,2.59,8.69,3.62,12.81,4.12-3.17-3.45-8.35-4-12.81-4.12ZM142.96,99.87h0s.01,0,.01,0c0,0,0,0,0,0ZM104.9,98.45s.06.03.09.05l-.05-.11s-.03.04-.05.06ZM131.8,84.77c.46.63.92,1.28,1.38,1.92,1.3,1.83,2.65,3.73,4.14,5.35.75.81,1.73,1.68,2.69,2.52.66.58,1.31,1.15,1.87,1.7.26.25.43.53.58.79.03.05.07.11.1.17l3.39-9.31c-5.24-2.84-8.53-9.43-7.91-16,.28-2.95,1.6-5.16,3.44-5.75.93-.3,2.8-.43,5,2.06,4.09,4.65,3.53,12.78,2.68,17.72,4.35.44,9.48-1.49,13.89-5.23,8.4-7.13,9.02-18.23,8.48-24.93-2.55,1.59-4.6,4.56-5.65,6.83-.13.27-.27.73-.45,1.25-.78,2.35-1.33,3.79-2.43,3.89-1.32.12-2.53-1.78-4.14-4.47-.29-.49-.54-.9-.7-1.14-3.11-4.43-7.73-7.35-12.67-8.03-4.27-.59-8.33.57-11.72,3.35-1.03.84-3.95,4.09-4.24,5.01.12.23.45.69.65.98.31.44.6.87.74,1.13,2.65,5.14,3.31,9.77,2.18,15.51-.1.5-.34,1.22-.59,1.98-.26.78-.72,2.19-.74,2.7ZM175.48,92.89c-1.31,0-2.56.25-3.75.74-1.6.66-1.9,1.18-1.89,1.32.06.55,1.95,1.54,4.2,1.94,2.49.44,5.26.35,8.73-.27.72-.13,1.46-.3,2.03-.46-3.53-2.19-6.58-3.27-9.32-3.27ZM87.63,78.08s-.04,0-.06,0c-.77.02-1.04.33-1.17.56-.78,1.34.45,4.91,1.52,6.9,3.09,5.75,9.23,10.33,15.23,11.5-.55-1.24-1.74-3.43-2.82-5.23-4.08-6.86-9.58-13.73-12.7-13.73ZM41.72,46.65c-.98,0-2.08.13-3.51.53-5.12,1.4-9.24,4.96-11.3,9.79-2.12,4.97-1.79,10.67.9,15.63.16.3.44.67.73,1.07.83,1.13,1.69,2.3,1.55,3.34-.14,1.01-1.07,1.63-1.82,2.14-.29.19-.59.39-.73.54-1.57,1.68-1.8,3.74-1.71,5.16.17,2.78,1.64,5.72,3.74,7.49,3.94,3.32,9.16,2.98,14.22,2.66,1.9-.12,3.86-.25,5.74-.17-.05-.13-.11-.26-.17-.39-.16-.36-.33-.72-.44-1.12-1.63-5.88-.04-10.72,4.5-13.63.78-.5,1.59-.81,2.37-1.1.42-.16.82-.31,1.19-.48-.66-1.03-1.05-1.02-2.07-1-.45.01-.97.02-1.59-.05-5.39-.59-13.84-3.65-15.06-9.68-.31-1.55-.04-2.64.8-3.26,1.36-1,4.03-.42,7.93,1.74,4.12,2.27,7.49,5.69,10.47,8.75l5.5-.55c-5.89-8.78-6.37-19.05-1.28-28.38,1.26-2.31,2.81-4.11,4.56-5.92-5.67-.87-10.79.41-13.9,3.53-.48.48-.8,1.06-1.11,1.61-.66,1.17-1.4,2.49-3.56,2.39-1.28-.07-2.31-.22-3.21-.36-.95-.14-1.79-.27-2.75-.27ZM122.12,94.11h0s.01,0,.02,0c0,0-.01,0-.02,0ZM127.06,42.74s0,.04-.01.06c-.48,2.51-.84,4.07-1.74,4.63-.45.27-1.25.42-2.51.62-.61.1-1.23.2-1.59.3-5.99,1.75-13.55,8.4-15.25,15.5-2.41,10.05-.12,16.43,8.45,23.55,1.79,1.49,7.08,5.08,8.06,5.16,1.11-.13,5.33-5.47,6.26-7.56-.33-.57-.67-1.13-1.01-1.69-1.12-1.84-2.27-3.75-2.99-5.88-1.84-5.48-.13-10.95,1.74-14.71-.21-.29-.46-.59-.73-.91-.96-1.16-2.05-2.47-2.05-4.07,0-1.17.67-2.23,1.27-3.17.25-.4.5-.79.67-1.16,1.2-2.66,1.53-5.22,1.77-7.83l-.35-2.84ZM142.51,68.53c-.31,0-.55.22-.9.7-1.47,2.02-1.45,5.97.06,9.82,1.19,3.05,3.06,5.28,4.99,6.04,1.13-5.38.87-13.46-3.22-16.15-.41-.27-.69-.41-.93-.41ZM128.2,65.07c-2.67,5.56-2.06,11.71,1.67,16.88,2.13-5.46,1.46-12.18-1.67-16.88ZM59.11,77.08c.23.33.54.27,1.26.12.41-.08.87-.18,1.4-.2,1.15-.04,2.31-.02,3.47.07l-.5-.6c-1.84.41-3.71.61-5.58.61h-.05ZM56.2,75.58h0,0ZM40.59,66.16s-.02,0-.02,0c-.16.57,1.62,3.25,2.62,4.2,2.53,2.4,6.15,3.78,10.75,4.08-1.85-1.74-6.19-5.15-7.18-5.75-1.85-1.12-5.41-2.74-6.17-2.54ZM69.42,40.68c-4.64,3.48-7.72,9.02-8.47,15.26-.78,6.47,1.01,12.85,4.9,17.6,5.74-1.2,10.19-5.03,12.25-10.58,2.27-6.09,1.13-12.84-3.06-18.05-1.73-2.15-3.62-3.57-5.62-4.22ZM143.42,51.44c.1,0,.21,0,.31,0,5.43.08,10.81,2.41,14.41,6.23h0c1.18,1.25,2.14,2.87,3.07,4.44.44.75.87,1.47,1.31,2.13.96-2.39,1.97-4.86,3.66-6.99,1.12-1.42,2.48-2.53,3.8-3.6.35-.28.7-.57,1.04-.86-1.25-6.03-3.37-12.73-9.33-17.29-5.97-4.58-13.51-6.67-20.16-5.58-5.27.86-9.66,3.66-12.71,8.1,0,.32.32,1.68.5,2.5.2.89.38,1.66.42,2.14.37,4.46-.22,8.44-1.75,11.83-.18.4-.46.84-.75,1.29-.41.63-.96,1.5-.96,1.96,0,.26.16.99,1.55,2.55l3.36-3.97c3.17-3.16,7.49-4.87,12.24-4.87Z"/>
      <path class="cls-4" d="M22.96,213.12c-5.04,0-10.37-.17-15.86-.5-.03,0-3.37-.23-4-.98-1.37-1.66-1.95-2.64-1.3-3.41.74-.88,1.95-.24,4.21,1.06l.2.12c.25.15.48.28.62.34,18.35.66,37.32,1.34,56.81-4.5,14.78-4.43,25.63-10.42,30.56-25.3,1.36-4.1,1.41-6.87,1.47-10.08.03-1.6.06-3.24.24-5.22.21-2.25.88-4.77,1.54-7.21.49-1.84,1-3.73,1.29-5.44,1.39-8.26.54-13.12-.74-20.47l-.03-.18c-.18-1.05-.37-2.15-.57-3.3-.14-.83-.19-1.54-.23-2.18-.09-1.3-.15-2.32-.91-3.77-1.66-3.19-5.43-6.38-9.12-6.03-.56.05-1.74.46-2.89.86-2.96,1.03-4.82,1.62-5.82.89-.74-.54-.65-1.47-.6-1.87.16-1.55,1.86-2.58,3.5-3.57.57-.34,1.45-.88,1.86-1.26-1.03-.25-2.48-.25-3.89-.23h-.04c-3.06.03-6.53.05-7.96-2.47-.22-.39-.43-1.07-.67-1.86-.16-.53-.45-1.48-.66-1.91-6.49-.59-11.74-2.11-15.62-4.49-1.18-.72-1.89-1.31-2.4-1.73-1.1-.9-1.35-1.12-4.73-1.03-1.37.04-2.79.16-4.04.27-4.05.35-8.24.72-12.5-1.33-3.8-1.83-6.8-5.97-7.46-10.3-.52-3.38.49-6.44,2.82-8.61.22-.21.54-.41.82-.58.08-.05.19-.12.29-.18-3.92-5.67-5.2-12.41-3.54-18.5,1.56-5.7,5.56-10.18,11.25-12.62,4.63-1.99,8.61-1.7,13.31-1.1,3.21-5.29,9.01-8.09,15.93-7.67.78.04,1.85.3,2.79.53.57.14,1.74.42,2.04.4.17-.04.94-.48,1.35-.72l.05-.03c.5-.29,1.02-.6,1.4-.75,2.84-1.13,6.22-2.09,9.51-2.7.46-.09.95-.1,1.43-.11.65-.02,1.28-.04,1.71-.22.21-.11.67-1.16.82-1.51.21-.48.39-.86.57-1.15,5.33-8.65,16.56-12.58,27.3-9.56,6.44,1.81,11.4,6.49,14.75,13.91,3.51-4.25,8.24-6.9,13.71-7.68,7.39-1.05,15.75,1.41,22.35,6.59,4.69,3.67,7.81,9.48,9.55,17.75.38-.14.77-.28,1.15-.43h.04c2.13-.81,4.33-1.64,6.62-1.64,10.09.03,18.72,6.74,21.49,16.7,1.74,6.25,1.41,12.54-.93,18.2-2.32,5.6-6.41,10.05-11.82,12.87,1.23,1.63,2.13,3.21,2.59,5.57,2.23,11.53-4.59,18.24-11.71,20.67-4.47,1.53-9.72,1.61-14.39.22-3.59-1.07-8.53-3.47-11.69-8.89-5.26,4.51-10.95,9.07-17.64,11.21-.77.25-1.62.42-2.44.59-1.02.21-2.06.43-2.85.76-.36.15-.5.34-.75.67-.24.32-.54.71-1.07,1.07-1.86,1.23-4.39,1.04-6.83.85-1.89-.15-3.83-.3-5.33.21-4.62,1.56-8.43,9.74-8.75,14.49-.12,1.73.22,3.66.57,5.71.32,1.85.65,3.76.65,5.6,0,2.21-.38,4.42-.73,6.55-.62,3.66-1.2,7.11-.08,10.51.41,1.25.86,2.18,1.3,3.08.98,2.02,1.83,3.76,1.44,7.61-.08.78-.39,1.75-.71,2.78-.38,1.21-.94,3.01-.71,3.61.06.04.23.15.33.19,1.51.54,3.99.27,6.18.03,1-.11,1.94-.21,2.76-.23,6.26-.2,21.55.5,28.49,11.34.04.05,3.45,5.78,1.51,7.73-.56.56-1.11.43-1.32.35-.85-.33-.96-1.37-1.03-2.81v-.1c0-.09-.01-.16-.02-.21-2.13-8.98-14.59-12.95-22.45-13.42-2-.12-4.16.03-6.25.18h-.07c-2.54.18-5.16.37-7.59.08-1.37-.16-2.34-.67-2.89-1.53-1.01-1.57-.31-3.79.31-5.76.29-.91.56-1.77.63-2.43.31-3.11-.31-4.41-1.17-6.22-.39-.82-.83-1.74-1.24-2.93-1.54-4.45-.93-8-.27-11.76.33-1.87.67-3.81.73-5.92.06-2.03-.25-4.03-.54-5.96-.42-2.68-.84-5.43-.33-8.32,1.06-6.01,5.63-14.79,12.45-15.5,1.06-.11,2.34,0,3.7.11,2.27.19,4.83.4,5.92-.47.09-.08.18-.22.28-.38.14-.23.3-.49.56-.72.34-.31.81-.57,1.35-.79-2.88.52-5.93.57-9.07.13-.95-.13-2.72-.38-3.31-1.62-.21-.44-.33-1.17.26-2.14.55-.9,1.93-1.66,3.87-2.47-2.09.72-4.08,1.51-5.12,2.75-.77.91-1.48,1.87-2.16,2.79-1.3,1.76-2.64,3.58-4.49,5.2-.81.71-2.31,2.04-3.73,1.73-.45-.1-1.06-.41-1.44-1.29-.4-.92.01-2.88.74-6,.22-.94.45-1.9.51-2.41.53-4.08.1-9.48-1.27-15.62-.52-2.34-1.24-5.1-1.57-5.7-.13-.07-.63-.17-1.49-.28-.42-.05-.82-.11-1.11-.19-6.73-1.81-13.29-7.13-16.34-13.25-1.04-2.1-2.59-6.73-.99-9.26.48-.76,1.49-1.67,3.52-1.67h.04c6.31.13,14.99,15.25,15.96,16.98.47.84.91,1.74,1.3,2.54.38.79.75,1.53,1.14,2.24,4.29.24,8.85-.76,13.55-2.97-.45-.27-.93-.52-1.43-.8-.79-.43-1.67-.9-2.45-1.43-11.42-7.72-15.2-16.09-12.65-28,1.29-6,5.04-10.23,7.96-12.72,3.73-3.18,8.35-5.41,12.68-6.11.22-.54.29-1.17.36-1.84.06-.55.12-1.1.26-1.65.12-.47.38-1.12.66-1.81.22-.56.68-1.71.69-1.97.01-1.5-2.8-6.2-4.25-7.96-4.01-4.89-10.6-7.51-17.63-7.01-6.72.49-12.58,3.86-15.69,9.03-.15.25-.31.61-.47.98l-.04.08c-.47,1.09-.95,2.21-1.81,2.66-.84.45-2.36.6-3.83.75-.78.08-1.5.15-1.98.25-1.26.27-5.7,1.54-7.8,2.43,6.88,4.21,10.45,12,9.32,20.41-1.08,8.07-6.38,14.33-13.83,16.4l.1.12c1,1.17,2.25,2.63,1.48,3.9l-.32.53-.61-.09c-2.56-.39-5.05-.72-7.48-.44l.38.97c1.15,2.93,2.34,5.97,3.97,8.67,1.27,2.11,2.89,3.93,4.46,5.7,1.84,2.07,3.74,4.21,5.13,6.84.32.03,1.04.05,2.58,0,2.02-.07,4.01-.35,5.94-.62h.06c6.39-.91,13-1.83,18.21,4.42,2.92,3.51,5.01,10.42,4.65,15.42-.05.64-.36,3.87-2.13,4.56-.55.22-1.44.27-2.49-.74-.78-.75-1.71-2.25-2.61-3.71-.07-.11-.13-.22-.2-.33.02.05.05.09.07.14.81,1.7.9,3.04,1,4.47v.03c.05.64.09,1.31.22,2.06.21,1.28.43,2.51.65,3.71l.02.09c.97,5.4,1.89,10.51,1.28,16.68-.29,2.95-1.06,5.89-1.8,8.73-.72,2.77-1.4,5.38-1.64,7.87-.12,1.24-.07,2.58-.02,3.88.04,1.18.08,2.4,0,3.58-.68,10.54-7.93,22.92-16.52,28.17-13.73,8.41-33.66,12.67-59.25,12.67ZM2.69,208.08c-.29,0-.51.1-.69.31-.54.64.02,1.54,1.3,3.09.47.57,3.13.85,3.82.89,5.48.33,10.81.5,15.84.5,25.54,0,45.43-4.25,59.12-12.63,8.53-5.22,15.73-17.51,16.4-27.98.07-1.17.03-2.38,0-3.55-.05-1.31-.09-2.66.03-3.91.24-2.52.92-5.13,1.64-7.89.74-2.85,1.5-5.79,1.79-8.72.6-6.14-.31-11.23-1.28-16.61l-.02-.09c-.21-1.2-.44-2.44-.65-3.71-.12-.76-.17-1.43-.22-2.08v-.03c-.1-1.4-.19-2.72-.98-4.38-1.59-3.35-5.89-7.28-9.74-7.81-1.85-.25-3.76.29-5.55.92l-1.16.41,1.05-.63c1.07-.64,2.23-1.43,2.53-2.59.16-.62.05-1.28-.32-1.95l-.17-.3.32.13c4.85,1.91,8.69,4.91,12.09,9.46.44.59.98,1.47,1.51,2.33.89,1.45,1.81,2.94,2.57,3.66.96.91,1.74.87,2.23.68,1.63-.63,1.93-3.73,1.97-4.34.35-4.94-1.71-11.78-4.59-15.24-5.12-6.15-11.66-5.23-17.98-4.35h-.07c-1.94.28-3.94.56-5.97.63-1.67.06-2.39.02-2.68,0h-.07s-.03-.07-.03-.07c-1.38-2.63-3.29-4.78-5.13-6.85-1.58-1.77-3.21-3.61-4.49-5.74-1.64-2.73-2.83-5.77-3.99-8.71l-.5-1.27.16-.02c2.51-.32,5.08.01,7.71.42l.45.07.23-.39c.67-1.11-.51-2.5-1.46-3.61l-.35-.42.19-.05c7.46-1.99,12.76-8.21,13.84-16.24,1.13-8.39-2.48-16.17-9.41-20.29l-.21-.12.22-.1c2.01-.9,6.75-2.27,8.07-2.55.49-.11,1.21-.18,1.98-.25,1.47-.15,2.96-.29,3.76-.72.78-.42,1.24-1.49,1.7-2.54l.04-.09c.17-.38.32-.74.48-1.01,3.15-5.23,9.09-8.65,15.89-9.15,7.11-.5,13.78,2.15,17.84,7.1,1.46,1.78,4.32,6.56,4.3,8.12-.01.29-.35,1.17-.7,2.04-.28.7-.53,1.34-.65,1.8-.14.53-.2,1.07-.26,1.59-.08.73-.16,1.41-.41,1.99l-.03.06h-.07c-8.4,1.35-18.37,8.7-20.51,18.66-2.53,11.8,1.22,20.09,12.55,27.74.78.52,1.64.99,2.41,1.4.6.33,1.15.62,1.66.93l.2.12-.21.1c-4.84,2.31-9.53,3.34-13.95,3.09h-.07s-.03-.06-.03-.06c-.41-.73-.78-1.5-1.18-2.31-.39-.79-.82-1.69-1.29-2.52-.96-1.71-9.58-16.72-15.75-16.85h-.04c-1.92,0-2.86.84-3.31,1.56-1.54,2.43-.01,6.96,1.01,9.01,3.01,6.06,9.51,11.33,16.18,13.12.28.07.68.13,1.08.18.86.11,1.46.21,1.63.34l.03.03c.36.6,1.09,3.43,1.61,5.8,1.37,6.17,1.81,11.6,1.27,15.71-.07.52-.3,1.49-.52,2.43-.72,3.07-1.12,5-.76,5.85.34.79.87,1.06,1.26,1.15,1.29.29,2.73-.99,3.51-1.67,1.83-1.61,3.16-3.41,4.45-5.16.69-.93,1.4-1.89,2.17-2.81,1.27-1.5,3.83-2.35,6.31-3.18,1.69-.57,3.43-1.15,4.8-1.94,5.13-2.96,7.6-8.06,6.78-13.99-.61-4.44-3.99-5.62-6.96-6.67-1.09-.38-2.22-.78-3.22-1.32l-.16-.08.13-.12c1.87-1.67,3.53-3.75,5.22-6.53l.1-.17.11.16c3.08,4.42,6.89,8.18,10.58,11.82l.43.42-.05.08c-.43.76-.87,1.56-1.32,2.39l-.03.06c-2.89,5.29-6.48,11.86-11.42,14.41-.63.33-1.74.73-2.92,1.17l-.05.02c-3.43,1.26-5.92,2.25-6.68,3.49-.53.87-.43,1.51-.25,1.9.52,1.11,2.21,1.35,3.11,1.48,6.03.85,11.73-.12,16.48-2.81,6.25-3.54,11.2-10.63,8.16-18.48-.34-.88-.81-1.61-1.27-2.31-.36-.56-.7-1.08-.96-1.65l-.02-.05.02-.05c.33-.79.7-1.57,1.05-2.33l.03-.05c.48-1.02.97-2.08,1.4-3.18.16-.41.48-1.47.82-2.59l.02-.07c.24-.79.64-2.12.8-2.56l.02-.07h.07c.2-.05.61.03,1.01.12h.04c.36.09.73.17,1.05.17,7.87-.17,16.87-6.45,20.48-14.29,2.65-5.75,3.63-13.07,2.68-20.06v-.09s.07-.04.07-.04c4.31-2.05,7.56-2.4,12.01-1.32,6.81,1.66,10.98,5.17,13.52,11.37,2.58,6.31,2.58,13.39,0,19.44-2.29,5.36-6.45,9.49-11.7,11.62l-.05.02-.05-.02c-.33-.16-.96-.65-1.31-.92-.39-.3-.73-.56-.97-.71-4.78-2.83-9.13-3.78-12.92-2.8-3.08.79-4.92,2.36-4.92,4.19,0,1.76,1.7,3.22,4.69,4.01,4.28,1.13,9.1.52,12.39-.19.7-.15,1.22-.37,1.63-.55.9-.38,1.05-.4,1.91.59,3.81,4.4,2.62,13.8-1.09,17.88-3.71,4.08-10.38,6.04-17.01,5-5.98-.94-10.9-4.19-13.17-8.7l-.04-.07.05-.06c.25-.29.53-.59.83-.92l.06-.06c1.97-2.13,4.96-5.36,3.01-8.43-.75-1.19-1.74-1.28-2.26-1.23-1.98.21-3.82,2.92-4.33,4.26-.75,1.99-.57,3.32-.34,5,.03.22.06.43.08.64v.07s-1.2,1-1.2,1c-4.8,3.94-9.75,8.02-15.44,9.99-.62.21-1.52.41-2.46.62-2,.44-4.06.9-5.02,1.77-.23.21-.38.45-.51.67-.12.19-.21.35-.34.45-1.18.93-3.79.72-6.09.53-1.36-.11-2.63-.22-3.67-.11-6.69.7-11.18,9.36-12.23,15.3-.5,2.85-.08,5.57.33,8.21.3,1.97.61,3.97.55,6.03-.06,2.13-.4,4.07-.73,5.95-.65,3.73-1.26,7.25.26,11.63.41,1.17.84,2.08,1.22,2.88.88,1.86,1.52,3.2,1.2,6.37-.07.69-.34,1.56-.64,2.48-.6,1.91-1.29,4.08-.34,5.55.51.79,1.42,1.26,2.71,1.42,2.4.28,5.02.1,7.54-.08h.04c2.13-.15,4.3-.31,6.31-.19,7.93.48,20.52,4.5,22.68,13.63,0,.06.01.14.02.24v.1c.07,1.35.17,2.32.87,2.59.17.06.6.17,1.05-.29,1.55-1.56-.86-6.33-1.54-7.42-6.88-10.73-22.06-11.41-28.27-11.22-.8.02-1.74.13-2.73.23-2.22.24-4.73.51-6.3-.04-.16-.06-.4-.22-.44-.26l-.03-.04c-.3-.67.25-2.41.69-3.81.32-1.02.62-1.98.7-2.74.38-3.79-.45-5.49-1.41-7.47-.45-.92-.9-1.86-1.32-3.13-1.14-3.46-.55-6.94.06-10.62.36-2.14.73-4.33.73-6.52,0-1.82-.32-3.72-.64-5.56-.36-2.06-.69-4.01-.58-5.77.32-4.82,4.21-13.12,8.92-14.71,1.55-.53,3.52-.37,5.42-.23,2.42.19,4.9.38,6.69-.81.49-.33.78-.7,1-1.01.25-.33.43-.57.85-.75.81-.34,1.86-.56,2.88-.77.83-.17,1.68-.35,2.44-.59,6.69-2.14,12.39-6.74,17.66-11.26l.11-.1.08.13c5.45,9.51,17.39,11.58,25.86,8.69,7.02-2.4,13.74-9.01,11.54-20.38-.46-2.36-1.38-3.94-2.63-5.58l-.09-.12.13-.07c10.99-5.65,16.23-18.33,12.76-30.84-2.74-9.85-11.27-16.49-21.23-16.52-2.27,0-4.45.82-6.55,1.61h-.04c-.43.18-.87.34-1.29.49l-.13.05-.03-.14c-1.72-8.28-4.82-14.09-9.49-17.74-6.55-5.13-14.83-7.57-22.16-6.54-5.47.78-10.2,3.46-13.68,7.74l-.13.16-.08-.19c-3.32-7.46-8.26-12.15-14.67-13.96-10.63-2.99-21.74.9-27.02,9.45-.17.28-.34.66-.55,1.12-.39.89-.7,1.51-.95,1.63-.48.2-1.14.22-1.78.24-.5.01-.98.03-1.42.11-3.28.61-6.64,1.57-9.46,2.69-.36.15-.88.44-1.37.73l-.05.03c-.64.37-1.24.71-1.44.75-.32.04-1.27-.2-2.14-.41-.93-.23-1.98-.48-2.74-.53-6.86-.42-12.59,2.36-15.74,7.62l-.04.07h-.08c-4.7-.61-8.65-.91-13.26,1.06-5.62,2.41-9.56,6.83-11.1,12.46-1.66,6.06-.36,12.76,3.57,18.39l.07.1-.1.07c-.13.09-.29.19-.4.26-.27.17-.57.36-.78.55-2.27,2.12-3.24,5.1-2.74,8.39.65,4.25,3.59,8.32,7.32,10.11,4.2,2.02,8.35,1.66,12.37,1.31,1.25-.11,2.67-.23,4.05-.27,3.46-.09,3.74.14,4.89,1.09.51.42,1.21,1,2.38,1.71,3.86,2.37,9.1,3.88,15.58,4.46h.07s.03.07.03.07c.22.42.52,1.42.71,2.02.23.77.44,1.44.64,1.8,1.35,2.4,4.75,2.38,7.74,2.34h.04c1.52-.01,3.08-.02,4.16.3l.18.05-.11.14c-.32.41-1.36,1.04-2.05,1.46-1.6.97-3.25,1.97-3.39,3.39-.04.36-.12,1.19.5,1.64.91.66,2.71.08,5.59-.92,1.17-.41,2.37-.82,2.95-.88,3.82-.37,7.67,2.9,9.37,6.17.78,1.5.85,2.54.94,3.86.04.64.09,1.35.23,2.17.19,1.16.38,2.25.56,3.3l.03.17c1.29,7.38,2.14,12.25.74,20.56-.29,1.72-.8,3.62-1.29,5.45-.66,2.44-1.33,4.96-1.54,7.18-.18,1.97-.21,3.61-.24,5.2-.06,3.23-.12,6.02-1.48,10.16-4.96,14.98-15.87,21.01-30.72,25.46-19.54,5.85-38.54,5.17-56.92,4.5h-.05c-.15-.08-.37-.21-.66-.38l-.2-.12c-1.51-.87-2.52-1.43-3.2-1.43ZM144.54,99.2c.25.53.57,1.03.92,1.57.46.72.94,1.46,1.29,2.36,3.09,7.98-1.93,15.19-8.27,18.79-1.12.63-2.29,1.17-3.51,1.62.84-.19,1.61-.36,2.15-.55,5.64-1.96,10.58-6.02,15.36-9.95l1.11-.91c-.02-.19-.05-.38-.07-.56-.23-1.73-.42-3.09.35-5.14.52-1.39,2.44-4.21,4.53-4.42.58-.06,1.67.04,2.49,1.35,2.05,3.24-1.01,6.55-3.03,8.74l-.06.06c-.28.3-.54.58-.77.85,2.24,4.4,7.08,7.57,12.94,8.49,6.55,1.03,13.14-.9,16.79-4.92,3.64-4.01,4.82-13.24,1.09-17.55-.77-.89-.8-.87-1.62-.53-.43.18-.96.41-1.68.56-3.32.71-8.18,1.32-12.5.18-3.1-.82-4.88-2.37-4.87-4.25,0-1.96,1.92-3.61,5.11-4.43,3.86-.99,8.27-.04,13.11,2.83.25.15.59.41,1,.72.32.25.9.7,1.21.87,5.17-2.12,9.25-6.19,11.51-11.47,2.56-5.99,2.56-13,0-19.25-2.51-6.12-6.62-9.58-13.35-11.23-4.41-1.08-7.5-.75-11.76,1.26.94,7.01-.05,14.34-2.71,20.11-3.65,7.92-12.74,14.26-20.7,14.44-.36,0-.74-.08-1.11-.16h-.04c-.21-.06-.61-.15-.82-.15h-.01c-.17.5-.54,1.72-.77,2.47l-.02.07c-.34,1.13-.66,2.19-.82,2.61-.43,1.1-.93,2.16-1.41,3.19l-.03.06c-.35.74-.7,1.5-1.03,2.27ZM88.09,113.16c.33,0,.66.02.99.06,2.68.37,5.56,2.34,7.64,4.64-3.07-3.76-6.52-6.34-10.75-8.06.28.63.35,1.24.19,1.84-.24.94-.97,1.63-1.79,2.2,1.21-.38,2.46-.68,3.71-.68ZM125.34,93.87c.95.49,2,.86,3.03,1.22,3.05,1.07,6.5,2.29,7.13,6.87.83,6.03-1.68,11.22-6.89,14.23,4.84-2.54,8.39-9.04,11.25-14.27l.04-.06c.43-.8.86-1.57,1.27-2.31l-.29-.29c-3.65-3.6-7.43-7.33-10.5-11.7-1.63,2.66-3.23,4.67-5.03,6.3ZM5.53,210.84l-.81-.18c-.19-.04-.33-.08-.42-.11h-.03s-.02-.04-.02-.04c-.06-.08-.12-.15-.18-.22l-.39-.49.55.3c.2.11.4.22.58.32l.72.41ZM108.17,128.18l.06-.32c.19-1.05.54-2.63.77-3.67.28-1.27.5-2.27.56-2.68.95-7.34-1.07-15.24-2.69-21.59l-.04-.16h.16c.15,0,.3,0,.45,0,5,0,10.11-1.43,15.19-4.25l.05-.03.06.02,8.44,3.6c1.73,1.74,2.05,3.9,2,5.41-.08,2.94-1.58,6.08-3.82,8-2.16,1.85-4.44,2.56-6.85,3.32-1.35.42-2.74.85-4.13,1.5-1.86.87-3.53,3.14-5.14,5.34l-.02.03c-.82,1.12-1.59,2.17-2.33,2.95-.88.93-1.78,1.77-2.48,2.32l-.26.2ZM107.15,100.01c1.62,6.34,3.6,14.2,2.65,21.52-.05.42-.28,1.42-.56,2.69-.21.95-.51,2.31-.71,3.34.65-.53,1.43-1.28,2.19-2.08.73-.77,1.5-1.82,2.31-2.93l.02-.03c1.63-2.22,3.31-4.52,5.23-5.42,1.4-.66,2.8-1.09,4.16-1.51,2.39-.75,4.64-1.45,6.76-3.27,2.18-1.87,3.65-4.94,3.73-7.81.04-1.45-.26-3.53-1.91-5.21l-8.33-3.54c-5.2,2.88-10.43,4.29-15.55,4.25ZM103.39,122.89l-.14-.23c-5.22-8.81-10.95-13.68-19.16-16.3-.84-.27-2.08-.44-3.39-.63-1.4-.2-3.31-.46-4.43-.88l-.6-.23h.65c1.49-.04,3.22-.09,4.84-.25,1.28-.12,2.54-.32,3.75-.5,4.37-.68,8.14-1.26,12.26,1.33,3.17,1.99,5.54,6.19,6.33,11.23.33,2.1.58,4.47-.02,6.2l-.09.25ZM77.09,104.84c1.11.29,2.6.5,3.65.65,1.32.19,2.57.36,3.43.64,8.19,2.61,13.93,7.46,19.15,16.17.48-1.65.23-3.86-.07-5.82-.78-4.97-3.1-9.1-6.21-11.06-4.04-2.54-7.77-1.97-12.08-1.3-1.22.19-2.48.38-3.77.51-1.36.13-2.79.19-4.1.22ZM127.23,122.46c-1.1,0-3.71-.13-5.27-.36l-.34-.05.29-.18c1.31-.83,2.77-1.37,4.32-1.95h.03c1.51-.57,3.08-1.16,4.54-2.04,4.67-2.83,7.89-8.56,10.73-13.61.52-.92.98-1.75,1.45-2.54l.11-.19.11.19c1.74,3.02,2.61,5.87,1.22,9.92-2.29,6.69-10.21,10.5-16.84,10.8-.08,0-.2,0-.33,0ZM122.33,121.9c1.77.22,4.5.33,5.21.3,6.55-.3,14.36-4.05,16.61-10.63,1.34-3.9.59-6.56-1.09-9.53-.43.73-.86,1.5-1.34,2.35-2.86,5.08-6.09,10.83-10.81,13.7-1.48.9-3.06,1.49-4.58,2.05l-.08-.11.04.12c-1.42.53-2.76,1.03-3.97,1.74ZM155.88,110.42l-.02-.26c-.1-1.38.26-2.84.95-3.92.34-.53.93-1.21,1.81-1.48l.09-.03.05.08c.5.84.07,2.16-1.29,3.93-.19.25-.84.95-1.41,1.49l-.19.18ZM158.6,105.03c-.75.27-1.27.87-1.57,1.34-.61.95-.96,2.26-.93,3.49.5-.49,1.03-1.06,1.18-1.27,1.24-1.61,1.68-2.81,1.32-3.56ZM80.29,108.26c-.51-.01-1.07-.01-1.66-.01h-.64c-.78,0-1.4,0-1.77-.03-2.65-.26-2.87-1.08-3.51-3.53l-.04-.17h.02s-.33-.83-.33-.83l.62.89s.07.13.14.32c.12.32.28.76.67,1.2,1.05,1.19,3.64,1.53,6.14,1.86l.39.05-.02.25ZM73.3,105.87c.45,1.44.96,1.9,2.94,2.09.35.03,1,.03,1.74.03h.35c-2-.3-3.85-.72-4.74-1.73-.12-.13-.22-.27-.3-.4ZM75.29,104.28l-.77-.19.06-.24.77.19-.06.24ZM72.33,102.44l-.34-.12c-.22-.08-.34-.27-.52-.59-.18-.3-.36-.6-.62-.92-3.88-4.63-8.94-5.38-14.67-5.82-.34-.03-.81-.01-1.43.02-1.09.05-2.13.08-2.39-.06l-.03-.03c-.28-.3-.95-1.88-1.11-2.43-.88-2.91-.67-5.61.63-7.79,1.26-2.12,3.52-3.68,6.36-4.42l.11-.03.25.6c2,4.87,3.88,9.46,7.17,13.69.14.18.59.68,1.13,1.28l.02.02c1.17,1.29,4.28,4.73,5.26,6.29l.19.3ZM55.77,94.74c.16,0,.31,0,.43.01,4.88.38,9.29.98,12.91,3.98-.95-1.1-1.89-2.13-2.42-2.72l-.02-.02c-.54-.6-1-1.11-1.15-1.29-3.31-4.25-5.2-8.87-7.2-13.75l-.16-.4c-2.73.73-4.9,2.24-6.11,4.28-1.26,2.12-1.47,4.75-.6,7.59.18.61.81,2.04,1.04,2.32.29.12,1.75.05,2.24.03.41-.02.74-.03,1.03-.03ZM68.66,101.84l-.34-.04c-5.68-.69-9.89-2.05-12.87-4.15l-.34-.24h.41c4.6.13,9.72.72,12.9,4.17l.23.25ZM55.95,97.69c2.86,1.89,6.81,3.14,12.05,3.82-3.03-3.06-7.74-3.67-12.05-3.82ZM142.67,100.12l.31-.54.09.25h0l.03.1-.1.06-.33.13ZM105.26,98.79l-.33-.18s-.05-.02-.07-.04l-.14-.07.08-.13s.03-.03.04-.05l.13-.2.3.67ZM142.6,97.49l-.14-.21c-.04-.06-.07-.12-.1-.17-.15-.25-.32-.53-.56-.76-.55-.53-1.17-1.08-1.87-1.69-.95-.84-1.94-1.71-2.7-2.53-1.5-1.64-2.85-3.53-4.15-5.37l-.14-.2c-.41-.58-.82-1.16-1.24-1.72l-.03-.04v-.04c.02-.53.49-1.96.75-2.73v-.04c.26-.74.49-1.45.58-1.93,1.12-5.7.47-10.32-2.17-15.43-.13-.26-.44-.69-.73-1.12l-.03-.04c-.2-.29-.51-.73-.63-.95l-.03-.05.02-.05c.3-.96,3.26-4.23,4.28-5.07,3.42-2.8,7.51-3.97,11.81-3.38,4.97.68,9.62,3.62,12.76,8.08.17.24.4.63.68,1.09l.03.06c1.63,2.73,2.79,4.51,4.02,4.41,1.03-.1,1.56-1.5,2.33-3.81l.05-.14c.15-.47.29-.87.41-1.12,1.05-2.27,3.1-5.27,5.7-6.88l.17-.11.02.2c.5,6.22.06,17.75-8.53,25.04-4.47,3.79-9.57,5.72-13.98,5.26h-.13s.02-.15.02-.15c.78-4.57,1.48-12.93-2.65-17.62-2.15-2.44-3.97-2.32-4.87-2.02-1.79.58-3.08,2.74-3.36,5.65-.62,6.51,2.6,13.04,7.84,15.87l.09.05-.04.1-3.48,9.55ZM131.93,84.73c.41.56.81,1.12,1.21,1.69l.14.2c1.3,1.83,2.64,3.72,4.13,5.34.75.81,1.73,1.68,2.68,2.51.7.62,1.33,1.17,1.88,1.7.25.24.42.51.57.76l3.26-8.96c-5.27-2.91-8.5-9.5-7.88-16.07.29-3,1.64-5.25,3.53-5.86.95-.31,2.89-.45,5.13,2.1,4.15,4.72,3.51,13.05,2.73,17.69,4.32.4,9.29-1.5,13.66-5.22,8.41-7.14,8.93-18.4,8.46-24.62-2.47,1.61-4.42,4.48-5.43,6.67-.11.24-.24.64-.4,1.1l-.05.14c-.79,2.4-1.36,3.87-2.54,3.98-1.38.13-2.58-1.71-4.25-4.53l-.03-.06c-.27-.46-.51-.85-.67-1.08-3.09-4.4-7.68-7.3-12.58-7.97-4.24-.58-8.26.57-11.62,3.32-1.07.88-3.83,3.98-4.18,4.9.13.22.4.61.59.88l.03.04c.3.43.61.88.75,1.15,2.67,5.16,3.32,9.83,2.2,15.59-.1.5-.33,1.21-.58,1.96v.04c-.24.68-.7,2.09-.74,2.62ZM177.33,97.29c-1.17,0-2.26-.09-3.3-.28-2.18-.38-4.23-1.36-4.31-2.05-.03-.29.47-.84,1.97-1.45,1.21-.5,2.48-.75,3.8-.75,2.76,0,5.83,1.08,9.39,3.29l.24.15-.27.08c-.59.17-1.34.34-2.04.46-2.03.36-3.83.54-5.47.54ZM175.48,93.02c-1.3,0-2.51.24-3.7.73-1.49.61-1.81,1.1-1.81,1.2.05.44,1.83,1.43,4.1,1.83,2.47.44,5.23.35,8.68-.27.59-.11,1.21-.24,1.74-.38-3.42-2.08-6.37-3.1-9.01-3.1ZM103.36,97.2l-.24-.04c-6.08-1.18-12.24-5.82-15.32-11.56-1.08-2.01-2.31-5.64-1.51-7.03.15-.25.44-.59,1.27-.62.02,0,.04,0,.07,0,3.17,0,8.72,6.93,12.81,13.79,1.13,1.89,2.29,4.04,2.82,5.24l.1.22ZM87.63,78.2h-.06c-.71.02-.95.29-1.07.5-.72,1.25.42,4.74,1.52,6.78,3.01,5.6,8.98,10.15,14.91,11.38-.57-1.22-1.65-3.22-2.71-4.99-4.05-6.8-9.52-13.67-12.59-13.67ZM39.25,95.31c-3.55,0-6.97-.54-9.76-2.89-2.13-1.8-3.62-4.77-3.79-7.58-.09-1.45.14-3.54,1.74-5.26.16-.17.47-.38.75-.56.73-.49,1.63-1.09,1.76-2.05.13-.99-.71-2.14-1.52-3.25l-.05-.07c-.27-.37-.53-.73-.69-1.01-2.71-5-3.04-10.73-.91-15.74,2.07-4.86,6.22-8.45,11.38-9.86,1.32-.36,2.45-.53,3.54-.53.97,0,1.84.13,2.77.27h.03c.9.14,1.92.29,3.17.36,2.09.11,2.78-1.14,3.44-2.33.31-.56.64-1.14,1.13-1.64,3.13-3.15,8.24-4.45,14-3.57l.24.04-.17.17c-1.58,1.64-3.23,3.49-4.54,5.89-5.04,9.23-4.57,19.53,1.28,28.25l.12.17-5.77.58-.04-.04c-2.78-2.85-6.23-6.4-10.45-8.73-3.85-2.13-6.47-2.71-7.79-1.75-.8.59-1.05,1.64-.75,3.13,1.2,5.96,9.6,9,14.95,9.58.59.06,1.08.06,1.57.05,1.05-.02,1.48-.03,2.18,1.06l.08.12-.13.06c-.37.17-.76.32-1.18.48-.79.3-1.59.6-2.36,1.1-4.48,2.88-6.06,7.67-4.44,13.49.1.38.25.71.43,1.1l.02.05c.05.12.11.23.15.34l.08.18h-.2c-1.86-.08-3.8.04-5.68.16h-.05c-1.52.1-3.05.2-4.55.2ZM41.72,46.77c-1.07,0-2.18.17-3.48.52-5.08,1.39-9.17,4.93-11.21,9.71-2.11,4.94-1.78,10.59.9,15.52.15.27.4.62.67.98l.05.07c.84,1.15,1.72,2.34,1.57,3.43-.14,1.07-1.1,1.71-1.87,2.22-.25.17-.57.38-.71.53-1.54,1.65-1.76,3.67-1.68,5.07.16,2.74,1.62,5.65,3.7,7.4,3.9,3.28,9.09,2.95,14.12,2.64h.06c1.82-.12,3.69-.24,5.5-.18-.02-.05-.05-.1-.07-.16l-.02-.05c-.15-.32-.33-.72-.44-1.14-1.65-5.94-.03-10.82,4.55-13.76.8-.51,1.61-.82,2.4-1.12.38-.14.72-.27,1.05-.42-.57-.85-.93-.84-1.89-.82-.5.01-.99.02-1.6-.05-5.42-.59-13.94-3.69-15.17-9.78-.32-1.6-.04-2.74.85-3.38,1.41-1.03,4.12-.45,8.06,1.73,4.23,2.33,7.68,5.87,10.46,8.73l5.24-.52c-5.79-8.77-6.22-19.08-1.17-28.34,1.28-2.35,2.87-4.17,4.41-5.77-5.59-.8-10.52.48-13.55,3.53-.47.47-.78,1.04-1.09,1.58-.67,1.2-1.42,2.56-3.67,2.46-1.27-.07-2.29-.22-3.2-.36h-.03c-.92-.14-1.78-.27-2.73-.27ZM122,94.34v-.39s.53.11.53.11l-.34.16-.19.12ZM122.48,92.68c-1.1-.09-6.51-3.82-8.16-5.18-8.62-7.15-10.92-13.57-8.49-23.68,1.72-7.14,9.32-13.83,15.34-15.59.37-.11,1.02-.21,1.6-.3,1.25-.2,2.03-.34,2.46-.6.87-.53,1.22-2.07,1.69-4.54l.16-.85.44,3.63c-.24,2.63-.56,5.2-1.78,7.9-.16.36-.4.73-.64,1.12l-.04.06c-.59.92-1.25,1.97-1.25,3.11,0,1.55,1.07,2.85,2.02,3.99.25.3.51.62.73.91l.05.06-.03.07c-1.81,3.64-3.58,9.12-1.74,14.61.71,2.12,1.86,4.02,2.98,5.86.35.58.69,1.14,1.01,1.7l.03.05-.03.06c-.91,2.05-5.15,7.49-6.36,7.63ZM127.04,43.54c-.42,2.13-.8,3.47-1.66,4-.47.29-1.28.43-2.56.63-.57.09-1.22.19-1.57.3-5.96,1.74-13.47,8.35-15.17,15.41-2.4,10-.12,16.34,8.41,23.43,1.93,1.6,7.11,5.06,7.99,5.13,1-.12,5.14-5.32,6.11-7.43-.31-.54-.64-1.08-.96-1.61-1.13-1.87-2.29-3.78-3.01-5.93-1.86-5.54-.1-11.06,1.72-14.74-.2-.27-.44-.56-.68-.84-.97-1.17-2.08-2.51-2.08-4.15,0-1.21.69-2.29,1.29-3.24l.04-.06c.24-.38.47-.74.63-1.08,1.21-2.66,1.52-5.2,1.76-7.79l-.25-2.03ZM146.75,85.26l-.14-.05c-1.98-.78-3.87-3.07-5.06-6.11-1.52-3.89-1.54-7.88-.04-9.93.35-.48.62-.75,1-.75.29,0,.61.17,1,.43,4.31,2.83,4.32,11.29,3.28,16.28l-.03.15ZM142.51,68.66c-.24,0-.45.17-.8.65-1.45,1.99-1.42,5.88.07,9.7,1.14,2.91,2.92,5.11,4.79,5.92,1-4.94.97-13.14-3.2-15.87-.42-.27-.67-.39-.86-.39ZM129.91,82.21l-.13-.19c-3.76-5.2-4.38-11.4-1.69-17l.1-.2.12.18c3.14,4.7,3.82,11.53,1.69,16.99l-.08.21ZM128.22,65.33c-2.51,5.4-1.92,11.34,1.62,16.36,1.98-5.28,1.33-11.8-1.62-16.36ZM59.58,77.45c-.25,0-.43-.08-.58-.3l-.13-.2h.28c1.85,0,3.72-.21,5.55-.61l.07-.02.75.88-.3-.02c-1.16-.09-2.32-.11-3.46-.07-.52.02-.97.11-1.38.2-.34.07-.6.13-.81.13ZM63.38,76.86c.52,0,1.05.03,1.58.06l-.27-.31c-.44.09-.88.18-1.31.25ZM56.2,75.71c-.07,0-.12-.06-.12-.12s.06-.12.12-.12.12.06.12.12-.06.12-.12.12ZM54.28,74.6l-.35-.02c-4.63-.31-8.27-1.7-10.83-4.12-.91-.87-2.85-3.65-2.66-4.33v-.05s.11-.05.11-.05c.84-.23,4.57,1.52,6.26,2.55,1,.61,5.33,4,7.21,5.77l.25.24ZM40.68,66.27c0,.61,1.56,3.03,2.6,4.01,2.45,2.32,5.92,3.67,10.32,4.02-1.98-1.81-5.95-4.92-6.9-5.5-1.93-1.17-5.23-2.62-6.01-2.54ZM40.59,66.18v-.02s0,.02,0,.02ZM65.8,73.67l-.05-.06c-3.91-4.76-5.7-11.21-4.92-17.69.75-6.25,3.85-11.84,8.52-15.34l.05-.04.06.02c2.02.66,3.93,2.1,5.68,4.27,4.22,5.24,5.37,12.04,3.08,18.17-2.07,5.57-6.57,9.45-12.34,10.66l-.07.02ZM69.45,40.82c-4.58,3.46-7.63,8.97-8.37,15.13-.76,6.39.99,12.74,4.82,17.45,5.65-1.21,10.05-5.02,12.09-10.49,2.25-6.05,1.12-12.75-3.04-17.93-1.69-2.11-3.54-3.51-5.5-4.16ZM162.55,64.52l-.13-.2c-.43-.65-.84-1.35-1.28-2.08l-.03-.05c-.93-1.57-1.89-3.18-3.06-4.42-3.57-3.79-8.92-6.1-14.32-6.19-.1,0-.21,0-.31,0-4.71,0-9.02,1.72-12.15,4.83l-3.45,4.07-.1-.11c-1.37-1.55-1.58-2.31-1.58-2.63,0-.5.54-1.34.98-2.02.3-.47.58-.9.75-1.29,1.52-3.37,2.11-7.32,1.74-11.77-.04-.47-.22-1.27-.42-2.12-.24-1.06-.5-2.21-.51-2.53v-.04s.02-.03.02-.03c3.06-4.47,7.48-7.29,12.79-8.16,6.68-1.09,14.26,1.01,20.26,5.61,6.06,4.65,8.14,11.39,9.37,17.37v.07s-.04.05-.04.05c-.35.29-.69.58-1.04.86-1.32,1.07-2.67,2.18-3.78,3.58-1.7,2.15-2.73,4.71-3.64,6.96l-.09.22ZM143.42,51.32c.1,0,.21,0,.31,0,5.46.09,10.88,2.43,14.5,6.27,1.19,1.26,2.15,2.88,3.09,4.46l.04.06c.39.66.76,1.28,1.15,1.88.89-2.22,1.92-4.7,3.58-6.8,1.13-1.43,2.49-2.54,3.81-3.62.34-.27.67-.54.99-.82-1.23-5.92-3.29-12.57-9.27-17.14-5.95-4.56-13.45-6.63-20.07-5.56-5.22.85-9.58,3.62-12.6,8.02.03.38.34,1.76.5,2.44.2.86.38,1.67.42,2.16.37,4.49-.23,8.49-1.76,11.89-.18.41-.46.84-.75,1.29-.39.61-.95,1.48-.95,1.91,0,.22.14.89,1.42,2.35l3.27-3.86c3.18-3.17,7.55-4.92,12.33-4.92Z"/>
    </g>
  </g>
  <g>
    <g>
      <path class="cls-2" d="M531.22,111.88c-1.99.33-4.24,1.24-6.36,1.61-18.3,3.17-37.3-3.46-49.61-17.37-1.57-1.77-2.79-3.86-4.26-5.58-.15-.18-.41-.58-.67-.34.23,1.09,1.24,2.3,1.94,3.22,12.54,16.66,34.01,24.46,54.38,20.32,1.4-.28,3.57-.75,4.85-1.29.29-.12.6-.12.66-.53-.34-.21-.59-.08-.92-.02ZM520.61,96.97c1.37-.18,4.37-.67,5.56-1.2.54-.24.86-.64.44-1.19-.39-.51-1.7.25-2.31.39-13.55,3.03-26.62-.92-35.85-11.45-.46-.52-2.42-3.39-2.75-3.44-1.93-.3.47,2.59.82,3.04,3.73,4.89,9.1,8.92,14.76,11.33,5.88,2.51,13.02,3.37,19.33,2.52ZM518.87,79.46c1.83-.31,3.53-.29,1.99-2.45-7.65,2.32-15.31-.63-19.94-7.05l-1.42,1.14c2.08,3.11,5.16,5.69,8.62,7.15,3.35,1.42,7.17,1.81,10.75,1.21Z"/>
      <path d="M472.03,93.58l-.27-.35c-.67-.87-1.5-1.96-1.72-2.98l-.03-.16.12-.11c.15-.14.31-.15.41-.15.28.02.48.27.62.45l.06.07c.69.82,1.34,1.72,1.97,2.6.72,1,1.46,2.04,2.29,2.98,12.23,13.81,31.14,20.43,49.35,17.27,1.05-.18,2.14-.5,3.2-.81,1.05-.31,2.14-.63,3.15-.8.06-.01.12-.02.18-.04.25-.06.58-.13.95.1l.16.1-.02.18c-.07.51-.43.62-.67.7-.05.02-.11.03-.16.06-1.29.54-3.41,1.01-4.9,1.31-3.66.74-7.34,1.1-10.99,1.1-17.01,0-33.38-7.85-43.68-21.53ZM472.22,92.88l.27.36c8.81,11.71,22.12,19.1,36.45,20.88-12.92-1.64-25.11-7.89-33.89-17.81-.85-.96-1.6-2.01-2.32-3.02-.63-.88-1.23-1.72-1.88-2.5.33.71.9,1.46,1.39,2.09ZM531.48,112.12c-.07.01-.13.03-.2.04-.98.16-2,.46-3.09.78-.86.25-1.74.51-2.6.69.33-.06.67-.13,1-.19,1.46-.3,3.55-.75,4.79-1.28.06-.02.12-.04.17-.06-.02,0-.05.01-.07.02ZM501.17,94.71c-5.8-2.47-11.22-6.63-14.88-11.42l-.1-.13c-1.31-1.67-1.72-2.55-1.42-3.06.16-.28.49-.38.98-.3.28.04.65.47,2.09,2.44.35.48.69.93.83,1.1,8.98,10.26,21.95,14.4,35.57,11.36.15-.03.37-.12.6-.2.71-.27,1.59-.61,2.01-.08.28.36.28.66.23.85-.08.32-.35.59-.78.77-1.2.53-4.11,1.01-5.64,1.22-1.61.22-3.26.32-4.91.32-5.05,0-10.17-.99-14.57-2.87ZM525.04,95.02c-.25.1-.49.19-.68.23-13.84,3.09-27-1.12-36.13-11.55-.16-.18-.49-.63-.86-1.14-.54-.73-1.54-2.09-1.71-2.21-.3-.05-.39,0-.4.02-.04.06-.14.48,1.38,2.42l.11.14c3.6,4.71,8.94,8.81,14.65,11.24h0c5.76,2.45,12.75,3.36,19.18,2.5,1.4-.19,4.34-.67,5.48-1.17.25-.11.42-.25.45-.39.02-.1-.02-.22-.13-.36-.04-.05-.11-.07-.2-.07-.3,0-.83.2-1.15.33ZM508.01,78.52h0c-3.51-1.49-6.62-4.06-8.75-7.26l-.15-.22,1.86-1.49.18.25c4.71,6.52,12.22,9.18,19.62,6.94l.2-.06.12.17c.59.83.78,1.42.58,1.88-.27.64-1.17.78-2.21.94-.18.03-.36.05-.54.08-1.1.18-2.21.27-3.32.27-2.63,0-5.24-.51-7.59-1.5ZM500.86,70.38l-.98.78c2.06,3,5.02,5.42,8.35,6.83h0c3.24,1.37,7,1.79,10.59,1.19.19-.03.37-.06.55-.09.8-.12,1.62-.24,1.77-.59.07-.16.05-.49-.41-1.16-7.48,2.18-15.06-.48-19.88-6.97Z"/>
    </g>
    <g>
      <g>
        <g>
          <path class="cls-2" d="M548.19,58.03c-.55-.11-1.11-.22-1.66-.3-5.15-.89-10.62-1.74-15.91-1.51-2.41.09-5.15.34-8.38.78-.65.08-1.2.17-1.73.24-.43.06-.85.12-1.29.18-1.05.14-1.86.23-2.61.05h-.04c-.86-.24-1.56-.72-2.23-1.19-.18-.13-.36-.25-.57-.39-1.62-1.12-4.38-2.85-6.54-4-5.37-2.96-12.65-4.82-18.5-6.31-.91-.23-1.78-.46-2.65-.69-1.79-.55-2.21-1.94-2.61-3.28l-.13-.44c-.32-1.04-.71-2.35-1.26-3.64-.66-1.57-1.61-3.14-2.68-4.43-.79-.96-1.63-1.75-2.37-2.45-.21-.2-.41-.38-.6-.57l-.17-.17c-.59-.57-1.33-1.28-1.23-2.16.05-.44.3-.81.65-1.03.53-.39,1.46-.73,2.74-1.2l.84-.31c1.41-.53,2.75-1.05,4.01-1.56,3.03-1.19,6.4-2.79,10.27-4.89,2.03-1.16,3.92-1.04,5.93-.91l11.22.62c4.03.22,8.07.44,11.83.65.64.04,1.2.07,1.71.09,1.09.05,2.02.1,3.14.22,1.1.15,2.17.47,3.2.78l.67.2c1.45.45,3.09.95,4.79,1.47,2.91.88,5.92,1.8,8.49,2.65.32.09,1.5.54,7.83,3.09.53.21.88.36.95.38,1.31.49,2.68,1.13,4.14,1.81l.61.28c1.73.82,3.55,1.74,4.94,3.17,1.08,1.07,2.02,2.6,2.93,4.08l.05.08c1.04,1.72,2.19,3.56,3.32,5.32.4.66.92,1.44,1.42,2.19,1.04,1.56,1.69,2.56,1.9,3.17.14.34.19.69.15,1.02l-.03.14c-.25.84-.98,1.04-1.42,1.16-.3.08-.68.15-1.26.23l-.96.12c-1.07.13-2.17.27-3.28.48-2.58.45-6.27,1.49-9.17,3.87-.57.45-1.08.89-1.55,1.28-.55.47-1.02.88-1.47,1.2-.64.46-1.18.7-1.8.79-.22.02-.44.03-.68.02-.91-.02-1.95-.22-2.96-.42ZM569.36,47.96s.03-.22-.26-.74c-.63-1.1-1.42-2.32-2.19-3.51-.59-.9-1.17-1.81-1.7-2.68q-3.99-6.68-10.53-9.74l-.79-.37c-.1-.05-.55-.25-1.2-.54-3.38-1.5-5.57-2.48-6.98-3.15-.91-.07-1.86-.34-2.78-.61-.26-.08-.52-.15-.79-.23-1.89-.55-3.86-1.17-5.77-1.78-3.06-.97-6.22-1.97-9.03-2.64-.92-.13-1.63-.17-2.61-.22-.41-.02-.85-.04-1.35-.07-2.84-.13-6.48-.34-10.34-.57-5.92-.35-12.04-.7-15.87-.8-1.27.04-2.35.62-3.6,1.29l-.29.16c-4.09,2.31-8.86,4.17-13.06,5.82l-.42.16c-.92.37-1.07.6-1.07.6,0,0,0,0,0,0,0,.29.78,1.14,1.35,1.77,1.31,1.45,3.11,3.44,4.34,6.47.43,1,.75,1.97,1.03,2.83.11.34.22.67.32.97.48,1.36.82,1.91,1.77,2.28,1.01.35,2.14.62,3.34.91.81.2,1.65.4,2.43.62,4.42,1.18,9.58,2.72,14.41,5.21,1.93.98,3.92,2.12,5.73,3.3.53.32,1,.65,1.41.93,1.13.78,1.87,1.29,3.1,1.34h0c.62.01,1.42-.09,2.47-.24,1.52-.22,3.25-.44,4.73-.6,5.05-.58,9.6-.59,13.91-.04,2.44.29,5.18.7,8.38,1.27.35.05.7.12,1.03.18,1.42.26,2.55.47,3.6-.11.63-.36,1.45-1,2.31-1.67,1.15-.9,2.33-1.82,3.43-2.4,1.9-1.1,4.16-1.92,6.72-2.42.77-.16,1.54-.28,2.21-.38.83-.13,1.55-.24,2.08-.39.4-.1.51-.21.51-.21h0ZM476.93,28.07s.02.03.03.04c0-.02,0-.04.01-.06-.01,0-.03.02-.04.02Z"/>
          <path d="M551.29,58.58s-.1,0-.15,0c-.93-.02-1.97-.23-2.98-.42-.51-.1-1.09-.21-1.65-.3-5.15-.89-10.62-1.74-15.89-1.5-2.4.09-5.14.34-8.37.78-.65.08-1.2.17-1.72.24-.44.06-.85.12-1.29.18-1.07.14-1.88.23-2.66.05h-.04c-.88-.24-1.59-.73-2.27-1.2l-.04-.03c-.17-.12-.34-.23-.53-.36-1.62-1.12-4.38-2.85-6.54-4-5.37-2.95-12.63-4.81-18.47-6.3-.91-.23-1.78-.46-2.65-.68-1.86-.57-2.28-1.99-2.7-3.37l-.13-.44c-.31-1.04-.7-2.33-1.25-3.62-.65-1.56-1.6-3.12-2.66-4.4-.78-.95-1.62-1.74-2.36-2.44l-.07-.06c-.19-.18-.36-.34-.53-.51l-.17-.17c-.61-.59-1.37-1.33-1.27-2.26.05-.46.32-.88.71-1.12.54-.4,1.47-.74,2.76-1.21l.84-.31c1.39-.52,2.74-1.05,4.01-1.56,3.04-1.19,6.39-2.79,10.26-4.89,2.06-1.17,3.97-1.05,6-.93l11.22.62c4.03.22,8.07.44,11.83.65.61.04,1.14.06,1.63.09h.08c1.08.06,2.01.11,3.15.23,1.12.15,2.19.47,3.22.79l.67.2c1.44.45,3.05.94,4.76,1.46h.03c2.9.89,5.91,1.8,8.49,2.66.35.1,1.79.66,7.84,3.09.53.21.88.36.95.38,1.32.5,2.76,1.17,4.15,1.82l.61.29c1.75.83,3.57,1.75,4.98,3.2,1.09,1.08,2.03,2.62,2.94,4.1l.05.08c1.03,1.7,2.17,3.54,3.32,5.32.4.66.92,1.44,1.42,2.19,1.05,1.58,1.71,2.57,1.92,3.2.14.35.2.73.15,1.07l-.03.15c-.28.91-1.05,1.13-1.51,1.26-.31.08-.7.15-1.28.23l-1.04.13c-1.04.13-2.12.27-3.2.47-2.57.45-6.24,1.48-9.12,3.85-.56.44-1.07.87-1.51,1.25l-.03.03c-.55.47-1.03.88-1.48,1.2-.66.47-1.22.72-1.85.81-.18.02-.36.03-.55.03ZM532.42,56.06c4.73,0,9.55.76,14.13,1.55.57.08,1.15.2,1.66.3h0c1,.2,2.03.4,2.94.42.24,0,.46,0,.66-.02.59-.09,1.11-.32,1.74-.77.45-.32.92-.72,1.46-1.19l.03-.03c.45-.38.96-.82,1.52-1.26,2.92-2.4,6.63-3.44,9.23-3.9,1.08-.2,2.17-.34,3.21-.47l1.03-.13c.57-.08.94-.15,1.25-.23.44-.12,1.1-.31,1.33-1.08l.03-.13c.04-.29,0-.62-.14-.94-.2-.6-.85-1.59-1.89-3.15-.5-.76-1.03-1.54-1.43-2.2-1.14-1.78-2.29-3.62-3.32-5.32l-.05-.08c-.9-1.47-1.84-3-2.91-4.06-1.38-1.42-3.18-2.33-4.91-3.15l-.61-.29c-1.39-.65-2.82-1.31-4.14-1.81-.07-.03-.43-.17-.95-.38-6.02-2.42-7.48-2.99-7.82-3.09-2.59-.86-5.59-1.77-8.49-2.65h-.03c-1.71-.53-3.32-1.02-4.76-1.47l-.67-.2c-1.03-.31-2.09-.64-3.18-.78-1.12-.12-2.05-.17-3.13-.22h-.08c-.49-.03-1.03-.06-1.64-.09-3.76-.2-7.79-.43-11.83-.65l-11.22-.62c-1.99-.13-3.86-.24-5.86.9-3.88,2.11-7.24,3.71-10.29,4.9-1.27.51-2.62,1.04-4.01,1.56l-.84.31c-1.27.47-2.19.81-2.71,1.19-.34.21-.56.56-.6.94-.09.82.62,1.5,1.19,2.06l.17.17c.17.17.35.33.53.51l.06.06c.75.71,1.59,1.5,2.38,2.47,1.08,1.29,2.04,2.88,2.7,4.46.55,1.3.95,2.6,1.26,3.65l.13.44c.39,1.31.8,2.67,2.53,3.2.86.23,1.74.45,2.65.68,5.85,1.5,13.13,3.36,18.52,6.32,2.16,1.15,4.94,2.89,6.56,4.01.19.12.36.24.53.36l.04.02c.67.46,1.35.94,2.19,1.16h.04c.73.18,1.52.1,2.56-.05.43-.06.85-.12,1.29-.18.53-.08,1.08-.16,1.73-.24,3.24-.43,5.99-.69,8.4-.78.6-.03,1.2-.04,1.81-.04ZM550.55,55.93c-.63,0-1.3-.12-2.07-.26l-.08-.02c-.31-.06-.63-.11-.95-.17-3.19-.57-5.93-.98-8.37-1.27-4.3-.55-8.84-.53-13.88.04-1.46.16-3.18.38-4.72.6-1.06.15-1.85.26-2.49.24-1.27-.05-2.03-.57-3.17-1.36-.38-.27-.86-.6-1.41-.93-1.82-1.18-3.8-2.32-5.73-3.29-4.82-2.48-9.98-4.02-14.39-5.2-.76-.22-1.58-.42-2.38-.61h-.05c-1.21-.3-2.34-.58-3.35-.93-1.02-.4-1.38-1.02-1.85-2.36-.1-.29-.21-.61-.32-.95v-.04c-.29-.85-.6-1.81-1.03-2.8-1.22-3.02-3.01-4.99-4.31-6.44-.78-.86-1.38-1.54-1.38-1.85v-.13s.07,0,.07,0c.19-.18.56-.39,1.08-.59l.42-.16c4.2-1.64,8.97-3.5,13.05-5.81l.3-.16c1.27-.68,2.35-1.27,3.65-1.3,3.78.1,9.79.45,15.61.79l.27.02c3.85.23,7.49.44,10.34.57.45.03.86.05,1.23.07h.12c.99.06,1.69.09,2.62.22,2.82.67,5.98,1.67,9.02,2.64l.14.04c1.87.59,3.81,1.21,5.66,1.74.26.07.53.15.79.23.92.27,1.86.54,2.75.61h.04c1.41.68,3.62,1.67,6.98,3.16l.55.25c.35.16.59.26.65.29l.78.37q6.58,3.07,10.58,9.78c.54.89,1.13,1.8,1.7,2.68.77,1.18,1.56,2.4,2.19,3.51.3.56.28.79.27.83l-.02.1h-.06c-.14.1-.36.17-.52.21-.54.15-1.29.27-2.09.39-.69.11-1.45.23-2.21.38-2.55.5-4.8,1.31-6.69,2.41-1.1.58-2.33,1.54-3.41,2.39-.88.69-1.69,1.32-2.33,1.68-.52.28-1.05.39-1.61.39ZM532.58,53.56c2.25,0,4.42.13,6.53.4,2.45.29,5.19.71,8.38,1.27.33.05.64.11.96.17h.08c1.4.27,2.51.48,3.52-.08.62-.35,1.42-.98,2.28-1.65,1.11-.87,2.35-1.84,3.46-2.42,1.9-1.11,4.18-1.93,6.76-2.44.76-.16,1.53-.28,2.21-.38.8-.12,1.55-.24,2.08-.39.18-.05.33-.1.42-.15,0-.08-.05-.27-.24-.61-.63-1.1-1.42-2.32-2.18-3.5-.57-.88-1.16-1.79-1.7-2.69q-3.97-6.65-10.48-9.69l-.79-.37c-.07-.03-.3-.14-.65-.29l-.55-.25c-3.34-1.49-5.55-2.47-6.97-3.14-.91-.07-1.86-.35-2.77-.61-.27-.08-.53-.16-.8-.23-1.86-.54-3.79-1.15-5.67-1.74l-.14-.04c-3.04-.96-6.19-1.96-9-2.63-.9-.13-1.6-.17-2.57-.21h-.13c-.38-.02-.78-.04-1.23-.07-2.85-.13-6.49-.34-10.34-.57l-.27-.02c-5.81-.34-11.83-.69-15.59-.79-1.23.04-2.3.61-3.53,1.27l-.3.16c-4.09,2.31-8.86,4.18-13.07,5.82l-.42.16c-.63.25-.89.44-.99.53.09.3.87,1.16,1.31,1.64,1.32,1.46,3.13,3.46,4.36,6.51.43,1,.75,1.96,1.02,2.82l-.11.08.12-.04c.11.34.21.65.32.94.46,1.32.79,1.85,1.7,2.2,1,.34,2.12.62,3.31.91h.06c.79.21,1.62.41,2.38.63,4.42,1.18,9.59,2.72,14.43,5.21,1.93.98,3.92,2.12,5.75,3.31.55.33,1.03.67,1.42.93,1.11.77,1.84,1.27,3.04,1.32.62.01,1.4-.09,2.45-.24,1.54-.22,3.27-.44,4.73-.6,2.59-.3,5.05-.44,7.42-.44ZM477.05,28.4l-.32-.38.15-.07.04.08-.02-.09.24-.13-.04.26s0,.03,0,.05l-.04.28Z"/>
        </g>
        <g>
          <path class="cls-2" d="M557.2,101.47c-1.59-.22-2.49-1.39-3.22-2.33-.17-.22-.34-.44-.52-.64l-.06-.08c-1.94-2.56-4.4-5.85-6.43-8.6-.47-.63-.33-1.53.3-2,.63-.47,1.53-.33,2,.3,2.01,2.73,4.45,5.99,6.38,8.53.2.24.4.49.59.74.46.59.79,1,1.11,1.17.36-.35.96-1.48,1.11-3,.18-1.32-.13-2.65-.66-4.24l-.02-.07c-.7-2.57.2-4.61,1.06-6.58.3-.69.62-1.41.88-2.17l4.74-11.74c.19-.5.41-1.03.64-1.58.66-1.56,1.48-3.51,1.01-4.39l-.03-.07c-.76-1.61-1.87-3.04-3.06-4.56-.54-.69-1.09-1.4-1.61-2.13-.46-.64-.31-1.54.34-1.99.64-.46,1.54-.31,1.99.34.48.68,1.02,1.37,1.53,2.03,1.22,1.57,2.48,3.19,3.37,5.07,1.09,2.08.02,4.6-.92,6.82-.21.5-.42.99-.61,1.49l-4.71,11.68c-.3.86-.63,1.62-.95,2.35-.78,1.78-1.35,3.07-.93,4.65.55,1.69,1.03,3.52.77,5.42-.26,2.68-1.7,5.55-3.88,5.59h-.12s-.11-.01-.11-.01ZM557.23,98.65h0s0,0,0,0Z"/>
          <path d="M557.32,101.61l-.13-.02c-1.64-.23-2.56-1.42-3.29-2.38l-.02-.03c-.16-.21-.32-.42-.49-.62l-.06-.08c-1.97-2.6-4.43-5.89-6.43-8.6-.51-.69-.36-1.66.33-2.17.33-.25.74-.35,1.15-.29s.77.28,1.02.61c2,2.71,4.44,5.98,6.38,8.53.2.23.4.49.59.74.4.51.71.9.99,1.09.36-.41.88-1.49,1.01-2.85.18-1.3-.13-2.61-.65-4.19l-.02-.07c-.71-2.61.19-4.67,1.07-6.66.31-.7.62-1.41.88-2.16l4.74-11.75c.19-.5.4-1.02.64-1.57.65-1.54,1.46-3.46,1.02-4.29l-.03-.07c-.75-1.59-1.86-3.02-3.04-4.53-.51-.66-1.08-1.39-1.62-2.15-.5-.7-.33-1.67.37-2.17.7-.5,1.67-.33,2.17.37.49.69,1.04,1.4,1.53,2.03,1.23,1.58,2.49,3.2,3.39,5.09,1.11,2.13.04,4.67-.91,6.91l-.02.04c-.21.5-.41.96-.59,1.45l-4.71,11.68c-.3.86-.63,1.62-.95,2.36-.77,1.76-1.33,3.03-.92,4.56.55,1.69,1.03,3.53.77,5.47-.26,2.72-1.75,5.65-4,5.7h-.12ZM557.21,101.35l.12.02h.1c2.1-.05,3.5-2.86,3.76-5.48.26-1.89-.21-3.7-.76-5.37-.43-1.63.14-2.93.93-4.74.32-.73.65-1.49.95-2.34l4.71-11.68c.18-.49.38-.96.59-1.46v-.03c.94-2.2,1.99-4.69.93-6.71-.89-1.87-2.14-3.48-3.36-5.05-.5-.63-1.05-1.35-1.54-2.04-.42-.59-1.24-.72-1.82-.31-.59.42-.72,1.23-.31,1.82.54.75,1.1,1.48,1.61,2.13,1.19,1.54,2.31,2.97,3.07,4.59l.03.06c.5.93-.33,2.91-1.01,4.5-.23.55-.45,1.07-.64,1.57l-4.74,11.75c-.26.75-.57,1.46-.87,2.15-.86,1.97-1.75,3.99-1.06,6.51l.02.07c.53,1.61.84,2.95.66,4.29-.15,1.59-.79,2.73-1.15,3.07l-.06.06-.08-.04s-.04-.02-.06-.04v.14-.14c-.33-.2-.66-.61-1.09-1.16-.19-.25-.39-.5-.59-.73-1.94-2.56-4.38-5.83-6.38-8.54-.21-.28-.51-.46-.86-.52-.34-.05-.69.03-.97.24-.58.43-.7,1.25-.27,1.82,2,2.71,4.46,6,6.42,8.6l.06.07c.17.2.34.41.5.62l-.08.1.1-.08c.71.92,1.59,2.07,3.13,2.28h0Z"/>
        </g>
      </g>
      <path class="cls-2" d="M549.1,91.07l.55-2.05c-.39-.1-.47-.21-.47-.21h0s-.05-.14.11-.6c1.61-4.04,4.6-10.91,6.59-15.46l.47-1.08c.5-1.16,1.17-1.58,2.42-1.57,3.91.07,5.25.63,5.65.87.07.28-.41,1.5-.79,2.49l-5.05,12.9c-.43,1.09-.77,1.96-1.14,2.49l1.74,1.22c.52-.74.9-1.71,1.38-2.93l5.05-12.9c.84-2.15,1.5-3.85.09-4.94l-.18-.13c-1.21-.72-3.46-1.12-6.71-1.17-2.19.01-3.56.89-4.41,2.85l-.47,1.08c-1.99,4.56-4.99,11.45-6.63,15.57-.13.39-.49,1.41,0,2.34.32.61.93,1.04,1.8,1.27Z"/>
      <path class="cls-8" d="M545.08,103.4c-2.99-3.29-3.94-6.95-2.22-8.52,1.73-1.57,5.28-.27,8.27,3.02,1.31,1.44,2.29,3.04,2.77,4.5.57,1.75.37,3.17-.55,4.01-.49.45-1.13.66-1.87.66-1.84,0-4.26-1.33-6.39-3.68ZM544.29,96.45c-.51.46,0,2.91,2.36,5.52,2.36,2.6,4.75,3.34,5.27,2.87.21-.19.28-.82-.04-1.78-.38-1.17-1.23-2.53-2.32-3.73h0c-1.93-2.12-3.87-3.01-4.81-3.01-.21,0-.37.04-.46.13ZM550.33,98.61h.02-.02Z"/>
    </g>
  </g>
  <g>
    <path class="cls-7" d="M178.91,176.32h-11.55c-1.67,0-2.86-.37-3.57-1.1-.71-.74-1.07-1.91-1.07-3.52v-27.98c0-1.64.37-2.82,1.1-3.54s1.91-1.08,3.54-1.08h12.25c1.8,0,3.37.11,4.69.33s2.51.64,3.56,1.27c.89.52,1.68,1.19,2.37,1.99s1.21,1.69,1.57,2.67c.36.97.54,2,.54,3.08,0,3.72-1.89,6.45-5.67,8.18,4.97,1.56,7.45,4.59,7.45,9.09,0,2.08-.54,3.96-1.62,5.62-1.08,1.67-2.54,2.9-4.38,3.69-1.15.47-2.47.81-3.97,1s-3.24.29-5.23.29ZM170.38,144.76v9.62h7.01c1.91,0,3.38-.18,4.42-.53,1.04-.36,1.83-1.03,2.38-2.03.43-.71.64-1.51.64-2.39,0-1.88-.68-3.13-2.04-3.75s-3.43-.93-6.21-.93h-6.21ZM178.34,159.79h-7.97v10.87h8.22c5.17,0,7.76-1.84,7.76-5.51,0-1.88-.67-3.24-2.01-4.09s-3.34-1.27-6.01-1.27Z"/>
    <path class="cls-7" d="M203.43,172.36v-29.33c0-1.52.35-2.67,1.06-3.43s1.62-1.14,2.73-1.14,2.08.38,2.8,1.13c.71.75,1.07,1.9,1.07,3.44v29.33c0,1.54-.36,2.69-1.07,3.45-.71.76-1.65,1.14-2.8,1.14s-2.01-.39-2.72-1.16c-.71-.77-1.07-1.92-1.07-3.44Z"/>
    <path class="cls-7" d="M238.65,138.47c3.92,0,7.28.78,10.09,2.35,2.81,1.57,4.94,3.79,6.38,6.68,1.44,2.89,2.17,6.28,2.17,10.17,0,2.88-.4,5.49-1.19,7.85-.79,2.35-1.98,4.39-3.56,6.12-1.58,1.73-3.52,3.05-5.83,3.96-2.3.91-4.94,1.37-7.91,1.37s-5.6-.47-7.94-1.41c-2.34-.94-4.29-2.26-5.85-3.97-1.56-1.71-2.75-3.77-3.54-6.17-.8-2.4-1.2-5-1.2-7.79s.42-5.48,1.25-7.87,2.04-4.42,3.62-6.09,3.51-2.96,5.78-3.85,4.85-1.33,7.73-1.33ZM249.53,157.61c0-2.73-.45-5.09-1.34-7.08s-2.17-3.51-3.83-4.53c-1.66-1.02-3.56-1.54-5.71-1.54-1.53,0-2.94.28-4.24.85-1.3.57-2.42,1.39-3.35,2.48-.94,1.08-1.68,2.47-2.22,4.15-.54,1.68-.81,3.58-.81,5.67s.27,4.03.81,5.74c.54,1.71,1.31,3.13,2.29,4.25s2.12,1.97,3.4,2.53c1.28.56,2.68.84,4.21.84,1.96,0,3.76-.48,5.4-1.45,1.64-.96,2.95-2.45,3.92-4.47.97-2.01,1.46-4.49,1.46-7.44Z"/>
    <path class="cls-7" d="M278.98,170.71l-6.06-23.71v25.7c0,1.42-.32,2.49-.97,3.2s-1.5,1.07-2.57,1.07-1.87-.35-2.53-1.05-.98-1.77-.98-3.21v-29.45c0-1.62.43-2.72,1.29-3.29.86-.57,2.02-.85,3.48-.85h2.37c1.43,0,2.46.13,3.11.38s1.12.71,1.43,1.37c.31.66.66,1.74,1.06,3.22l5.49,20.39,5.49-20.39c.4-1.49.75-2.56,1.06-3.22.31-.66.79-1.12,1.43-1.37s1.68-.38,3.11-.38h2.37c1.46,0,2.62.28,3.48.85s1.29,1.66,1.29,3.29v29.45c0,1.42-.32,2.49-.97,3.2s-1.51,1.07-2.59,1.07c-1.01,0-1.85-.36-2.5-1.07-.65-.71-.98-1.78-.98-3.2v-25.7l-6.06,23.71c-.4,1.54-.72,2.67-.97,3.39-.25.72-.71,1.38-1.38,1.97-.67.59-1.6.89-2.78.89-.89,0-1.65-.19-2.27-.57-.62-.38-1.1-.87-1.44-1.46-.34-.59-.62-1.25-.81-1.97-.2-.72-.4-1.47-.61-2.25Z"/>
    <path class="cls-7" d="M336.75,172.11l-1.8-4.67h-15.37l-1.8,4.77c-.71,1.86-1.31,3.12-1.8,3.77-.5.65-1.32.98-2.45.98-.96,0-1.81-.35-2.55-1.04-.74-.69-1.11-1.48-1.11-2.36,0-.51.09-1.03.26-1.57s.46-1.29.85-2.26l9.67-24.17c.27-.69.61-1.53.99-2.5s.8-1.78,1.24-2.42c.44-.64,1.01-1.16,1.73-1.56s1.59-.6,2.64-.6,1.96.2,2.67.6c.71.4,1.29.91,1.73,1.54s.81,1.3,1.11,2.02.68,1.68,1.15,2.88l9.87,24.02c.77,1.83,1.16,3.16,1.16,3.99s-.37,1.65-1.1,2.37c-.73.72-1.61,1.08-2.64,1.08-.6,0-1.12-.11-1.55-.32-.43-.21-.79-.5-1.08-.86-.29-.36-.61-.92-.94-1.68s-.62-1.42-.86-1.99ZM321.6,161.77h11.29l-5.7-15.36-5.59,15.36Z"/>
    <path class="cls-7" d="M381.64,165.15c0,2.25-.59,4.27-1.77,6.07-1.18,1.79-2.9,3.2-5.17,4.21-2.27,1.02-4.96,1.52-8.07,1.52-3.73,0-6.81-.69-9.23-2.08-1.72-1-3.12-2.33-4.19-4s-1.61-3.29-1.61-4.86c0-.91.32-1.7.97-2.35.64-.65,1.46-.98,2.46-.98.81,0,1.49.25,2.05.76s1.04,1.26,1.43,2.26c.48,1.18,1,2.17,1.56,2.97.56.8,1.34,1.45,2.36,1.97s2.35.77,4,.77c2.27,0,4.11-.52,5.53-1.56s2.13-2.34,2.13-3.9c0-1.24-.38-2.24-1.15-3.01s-1.75-1.36-2.96-1.76-2.83-.84-4.86-1.29c-2.72-.63-4.99-1.36-6.82-2.2-1.83-.84-3.28-1.98-4.36-3.43-1.07-1.45-1.61-3.25-1.61-5.4s.57-3.87,1.7-5.46,2.78-2.81,4.92-3.67,4.67-1.28,7.58-1.28c2.32,0,4.33.28,6.02.85,1.69.57,3.1,1.32,4.21,2.26s1.93,1.93,2.45,2.96.77,2.04.77,3.02c0,.9-.32,1.71-.97,2.42s-1.45,1.08-2.41,1.08c-.88,0-1.54-.22-2-.65-.46-.43-.95-1.14-1.48-2.12-.69-1.41-1.51-2.5-2.47-3.29-.96-.79-2.51-1.18-4.64-1.18-1.98,0-3.57.43-4.78,1.28-1.21.85-1.82,1.88-1.82,3.08,0,.75.21,1.39.62,1.93.41.54.98,1.01,1.7,1.4.72.39,1.45.69,2.19.91.74.22,1.96.54,3.66.96,2.13.49,4.06,1.03,5.79,1.62s3.2,1.31,4.41,2.16,2.16,1.92,2.84,3.21,1.02,2.88,1.02,4.76Z"/>
    <path class="cls-7" d="M419.24,165.15c0,2.25-.59,4.27-1.77,6.07-1.18,1.79-2.9,3.2-5.17,4.21-2.27,1.02-4.96,1.52-8.07,1.52-3.73,0-6.81-.69-9.23-2.08-1.72-1-3.12-2.33-4.19-4s-1.61-3.29-1.61-4.86c0-.91.32-1.7.97-2.35.64-.65,1.46-.98,2.46-.98.81,0,1.49.25,2.05.76s1.04,1.26,1.43,2.26c.48,1.18,1,2.17,1.56,2.97.56.8,1.34,1.45,2.36,1.97s2.35.77,4,.77c2.27,0,4.11-.52,5.53-1.56s2.13-2.34,2.13-3.9c0-1.24-.38-2.24-1.15-3.01s-1.75-1.36-2.96-1.76-2.83-.84-4.86-1.29c-2.72-.63-4.99-1.36-6.82-2.2-1.83-.84-3.28-1.98-4.36-3.43-1.07-1.45-1.61-3.25-1.61-5.4s.57-3.87,1.7-5.46,2.78-2.81,4.92-3.67,4.67-1.28,7.58-1.28c2.32,0,4.33.28,6.02.85,1.69.57,3.1,1.32,4.21,2.26s1.93,1.93,2.45,2.96.77,2.04.77,3.02c0,.9-.32,1.71-.97,2.42s-1.45,1.08-2.41,1.08c-.88,0-1.54-.22-2-.65-.46-.43-.95-1.14-1.48-2.12-.69-1.41-1.51-2.5-2.47-3.29-.96-.79-2.51-1.18-4.64-1.18-1.98,0-3.57.43-4.78,1.28-1.21.85-1.82,1.88-1.82,3.08,0,.75.21,1.39.62,1.93.41.54.98,1.01,1.7,1.4.72.39,1.45.69,2.19.91.74.22,1.96.54,3.66.96,2.13.49,4.06,1.03,5.79,1.62s3.2,1.31,4.41,2.16,2.16,1.92,2.84,3.21,1.02,2.88,1.02,4.76Z"/>
    <path d="M448.43,139.1h9.98c2.59,0,4.82.24,6.68.71,1.86.47,3.54,1.36,5.05,2.67,3.94,3.32,5.9,8.36,5.9,15.13,0,2.23-.2,4.27-.59,6.12s-1.01,3.51-1.83,4.99c-.83,1.48-1.88,2.81-3.17,3.97-1.01.9-2.12,1.62-3.33,2.16s-2.5.92-3.88,1.14c-1.38.22-2.94.33-4.68.33h-9.98c-1.39,0-2.44-.21-3.15-.62-.71-.42-1.16-1-1.38-1.75-.22-.75-.32-1.73-.32-2.93v-27.29c0-1.62.37-2.8,1.11-3.53.74-.73,1.93-1.09,3.58-1.09ZM451.39,145.07v25.26h5.8c1.27,0,2.27-.03,2.99-.1.72-.07,1.47-.24,2.24-.51s1.44-.65,2.01-1.14c2.56-2.13,3.84-5.81,3.84-11.02,0-3.67-.56-6.42-1.69-8.25-1.13-1.83-2.51-2.99-4.16-3.49-1.65-.5-3.64-.75-5.98-.75h-5.05Z"/>
    <path d="M485.45,172.36v-29.33c0-1.52.35-2.67,1.06-3.43s1.62-1.14,2.73-1.14,2.08.38,2.8,1.13c.71.75,1.07,1.9,1.07,3.44v29.33c0,1.54-.36,2.69-1.07,3.45-.71.76-1.65,1.14-2.8,1.14s-2.01-.39-2.72-1.16c-.71-.77-1.07-1.92-1.07-3.44Z"/>
    <path d="M532.76,165.15c0,2.25-.59,4.27-1.77,6.07-1.18,1.79-2.9,3.2-5.17,4.21-2.27,1.02-4.96,1.52-8.07,1.52-3.73,0-6.81-.69-9.23-2.08-1.72-1-3.12-2.33-4.19-4s-1.61-3.29-1.61-4.86c0-.91.32-1.7.97-2.35.64-.65,1.46-.98,2.46-.98.81,0,1.49.25,2.05.76s1.04,1.26,1.43,2.26c.48,1.18,1,2.17,1.56,2.97.56.8,1.34,1.45,2.36,1.97s2.35.77,4,.77c2.27,0,4.11-.52,5.53-1.56s2.13-2.34,2.13-3.9c0-1.24-.38-2.24-1.15-3.01s-1.75-1.36-2.96-1.76-2.83-.84-4.86-1.29c-2.72-.63-4.99-1.36-6.82-2.2-1.83-.84-3.28-1.98-4.36-3.43-1.07-1.45-1.61-3.25-1.61-5.4s.57-3.87,1.7-5.46,2.78-2.81,4.92-3.67,4.67-1.28,7.58-1.28c2.32,0,4.33.28,6.02.85,1.69.57,3.1,1.32,4.21,2.26s1.93,1.93,2.45,2.96.77,2.04.77,3.02c0,.9-.32,1.71-.97,2.42s-1.45,1.08-2.41,1.08c-.88,0-1.54-.22-2-.65-.46-.43-.95-1.14-1.48-2.12-.69-1.41-1.51-2.5-2.47-3.29-.96-.79-2.51-1.18-4.64-1.18-1.98,0-3.57.43-4.78,1.28-1.21.85-1.82,1.88-1.82,3.08,0,.75.21,1.39.62,1.93.41.54.98,1.01,1.7,1.4.72.39,1.45.69,2.19.91.74.22,1.96.54,3.66.96,2.13.49,4.06,1.03,5.79,1.62s3.2,1.31,4.41,2.16,2.16,1.92,2.84,3.21,1.02,2.88,1.02,4.76Z"/>
    <path d="M573.84,164.57c0,1.18-.3,2.47-.89,3.85s-1.53,2.73-2.8,4.06c-1.27,1.33-2.9,2.41-4.87,3.24s-4.28,1.24-6.91,1.24c-1.99,0-3.81-.19-5.44-.56s-3.12-.95-4.45-1.74-2.56-1.82-3.67-3.11c-1-1.17-1.85-2.48-2.55-3.92-.7-1.45-1.23-2.99-1.58-4.63-.35-1.64-.53-3.39-.53-5.23,0-3,.44-5.68,1.33-8.05.89-2.37,2.15-4.4,3.8-6.08,1.65-1.68,3.58-2.97,5.8-3.85s4.58-1.32,7.09-1.32c3.06,0,5.78.6,8.17,1.8,2.39,1.2,4.22,2.69,5.49,4.46,1.27,1.77,1.91,3.44,1.91,5.01,0,.86-.31,1.62-.93,2.29-.62.66-1.37.99-2.24.99-.98,0-1.71-.23-2.2-.69-.49-.46-1.04-1.24-1.64-2.36-1-1.84-2.17-3.22-3.52-4.14-1.35-.91-3.01-1.37-4.99-1.37-3.15,0-5.65,1.18-7.52,3.53s-2.8,5.7-2.8,10.03c0,2.89.41,5.3,1.24,7.22s1.99,3.36,3.51,4.3c1.51.95,3.28,1.42,5.31,1.42,2.2,0,4.06-.54,5.58-1.61,1.52-1.08,2.67-2.65,3.44-4.74.33-.98.73-1.78,1.21-2.4s1.25-.93,2.32-.93c.91,0,1.69.31,2.35.94.65.63.98,1.41.98,2.34Z"/>
  </g>
</svg>